<svg xmlns="http://www.w3.org/2000/svg" xmlns:xlink="http://www.w3.org/1999/xlink" version="1.1" class="marks" width="1848" height="968" viewBox="0 0 924 484"><rect width="924" height="484" fill="white"/><g fill="none" stroke-miterlimit="10" transform="translate(58,27)"><g class="mark-group role-frame root" role="graphics-object" aria-roledescription="group mark container"><g transform="translate(0,0)"><path class="background" aria-hidden="true" d="M0.5,0.5h700v420h-700Z" stroke="#ddd"/><g><g class="mark-group role-axis" aria-hidden="true"><g transform="translate(0.5,420.5)"><path class="background" aria-hidden="true" d="M0,0h0v0h0Z" pointer-events="none"/><g><g class="mark-rule role-axis-grid" pointer-events="none"><line transform="translate(0,-420)" x2="0" y2="420" stroke="#ddd" stroke-width="1" opacity="1"/><line transform="translate(53,-420)" x2="0" y2="420" stroke="#ddd" stroke-width="1" opacity="1"/><line transform="translate(83,-420)" x2="0" y2="420" stroke="#ddd" stroke-width="1" opacity="1"/><line transform="translate(105,-420)" x2="0" y2="420" stroke="#ddd" stroke-width="1" opacity="1"/><line transform="translate(122,-420)" x2="0" y2="420" stroke="#ddd" stroke-width="1" opacity="1"/><line transform="translate(136,-420)" x2="0" y2="420" stroke="#ddd" stroke-width="1" opacity="1"/><line transform="translate(148,-420)" x2="0" y2="420" stroke="#ddd" stroke-width="1" opacity="1"/><line transform="translate(158,-420)" x2="0" y2="420" stroke="#ddd" stroke-width="1" opacity="1"/><line transform="translate(167,-420)" x2="0" y2="420" stroke="#ddd" stroke-width="1" opacity="1"/><line transform="translate(175,-420)" x2="0" y2="420" stroke="#ddd" stroke-width="1" opacity="1"/><line transform="translate(228,-420)" x2="0" y2="420" stroke="#ddd" stroke-width="1" opacity="1"/><line transform="translate(258,-420)" x2="0" y2="420" stroke="#ddd" stroke-width="1" opacity="1"/><line transform="translate(280,-420)" x2="0" y2="420" stroke="#ddd" stroke-width="1" opacity="1"/><line transform="translate(297,-420)" x2="0" y2="420" stroke="#ddd" stroke-width="1" opacity="1"/><line transform="translate(311,-420)" x2="0" y2="420" stroke="#ddd" stroke-width="1" opacity="1"/><line transform="translate(323,-420)" x2="0" y2="420" stroke="#ddd" stroke-width="1" opacity="1"/><line transform="translate(333,-420)" x2="0" y2="420" stroke="#ddd" stroke-width="1" opacity="1"/><line transform="translate(342,-420)" x2="0" y2="420" stroke="#ddd" stroke-width="1" opacity="1"/><line transform="translate(350,-420)" x2="0" y2="420" stroke="#ddd" stroke-width="1" opacity="1"/><line transform="translate(403,-420)" x2="0" y2="420" stroke="#ddd" stroke-width="1" opacity="1"/><line transform="translate(433,-420)" x2="0" y2="420" stroke="#ddd" stroke-width="1" opacity="1"/><line transform="translate(455,-420)" x2="0" y2="420" stroke="#ddd" stroke-width="1" opacity="1"/><line transform="translate(472,-420)" x2="0" y2="420" stroke="#ddd" stroke-width="1" opacity="1"/><line transform="translate(486,-420)" x2="0" y2="420" stroke="#ddd" stroke-width="1" opacity="1"/><line transform="translate(498,-420)" x2="0" y2="420" stroke="#ddd" stroke-width="1" opacity="1"/><line transform="translate(508,-420)" x2="0" y2="420" stroke="#ddd" stroke-width="1" opacity="1"/><line transform="translate(517,-420)" x2="0" y2="420" stroke="#ddd" stroke-width="1" opacity="1"/><line transform="translate(525,-420)" x2="0" y2="420" stroke="#ddd" stroke-width="1" opacity="1"/><line transform="translate(578,-420)" x2="0" y2="420" stroke="#ddd" stroke-width="1" opacity="1"/><line transform="translate(608,-420)" x2="0" y2="420" stroke="#ddd" stroke-width="1" opacity="1"/><line transform="translate(630,-420)" x2="0" y2="420" stroke="#ddd" stroke-width="1" opacity="1"/><line transform="translate(647,-420)" x2="0" y2="420" stroke="#ddd" stroke-width="1" opacity="1"/><line transform="translate(661,-420)" x2="0" y2="420" stroke="#ddd" stroke-width="1" opacity="1"/><line transform="translate(673,-420)" x2="0" y2="420" stroke="#ddd" stroke-width="1" opacity="1"/><line transform="translate(683,-420)" x2="0" y2="420" stroke="#ddd" stroke-width="1" opacity="1"/><line transform="translate(692,-420)" x2="0" y2="420" stroke="#ddd" stroke-width="1" opacity="1"/><line transform="translate(700,-420)" x2="0" y2="420" stroke="#ddd" stroke-width="1" opacity="1"/></g></g><path class="foreground" aria-hidden="true" d="" pointer-events="none" display="none"/></g></g><g class="mark-group role-axis" aria-hidden="true"><g transform="translate(0.5,0.5)"><path class="background" aria-hidden="true" d="M0,0h0v0h0Z" pointer-events="none"/><g><g class="mark-rule role-axis-grid" pointer-events="none"><line transform="translate(0,420)" x2="700" y2="0" stroke="#ddd" stroke-width="1" opacity="1"/><line transform="translate(0,368)" x2="700" y2="0" stroke="#ddd" stroke-width="1" opacity="1"/><line transform="translate(0,315)" x2="700" y2="0" stroke="#ddd" stroke-width="1" opacity="1"/><line transform="translate(0,263)" x2="700" y2="0" stroke="#ddd" stroke-width="1" opacity="1"/><line transform="translate(0,210)" x2="700" y2="0" stroke="#ddd" stroke-width="1" opacity="1"/><line transform="translate(0,158)" x2="700" y2="0" stroke="#ddd" stroke-width="1" opacity="1"/><line transform="translate(0,105)" x2="700" y2="0" stroke="#ddd" stroke-width="1" opacity="1"/><line transform="translate(0,53)" x2="700" y2="0" stroke="#ddd" stroke-width="1" opacity="1"/><line transform="translate(0,0)" x2="700" y2="0" stroke="#ddd" stroke-width="1" opacity="1"/></g></g><path class="foreground" aria-hidden="true" d="" pointer-events="none" display="none"/></g></g><g class="mark-group role-axis" role="graphics-symbol" aria-roledescription="axis" aria-label="X-axis titled 'RowCount' for a log scale with values from 10 to 100k"><g transform="translate(0.5,420.5)"><path class="background" aria-hidden="true" d="M0,0h0v0h0Z" pointer-events="none"/><g><g class="mark-rule role-axis-tick" pointer-events="none"><line transform="translate(0,0)" x2="0" y2="5" stroke="#888" stroke-width="1" opacity="1"/><line transform="translate(53,0)" x2="0" y2="5" stroke="#888" stroke-width="1" opacity="1"/><line transform="translate(83,0)" x2="0" y2="5" stroke="#888" stroke-width="1" opacity="1"/><line transform="translate(105,0)" x2="0" y2="5" stroke="#888" stroke-width="1" opacity="1"/><line transform="translate(122,0)" x2="0" y2="5" stroke="#888" stroke-width="1" opacity="1"/><line transform="translate(136,0)" x2="0" y2="5" stroke="#888" stroke-width="1" opacity="1"/><line transform="translate(148,0)" x2="0" y2="5" stroke="#888" stroke-width="1" opacity="1"/><line transform="translate(158,0)" x2="0" y2="5" stroke="#888" stroke-width="1" opacity="1"/><line transform="translate(167,0)" x2="0" y2="5" stroke="#888" stroke-width="1" opacity="1"/><line transform="translate(175,0)" x2="0" y2="5" stroke="#888" stroke-width="1" opacity="1"/><line transform="translate(228,0)" x2="0" y2="5" stroke="#888" stroke-width="1" opacity="1"/><line transform="translate(258,0)" x2="0" y2="5" stroke="#888" stroke-width="1" opacity="1"/><line transform="translate(280,0)" x2="0" y2="5" stroke="#888" stroke-width="1" opacity="1"/><line transform="translate(297,0)" x2="0" y2="5" stroke="#888" stroke-width="1" opacity="1"/><line transform="translate(311,0)" x2="0" y2="5" stroke="#888" stroke-width="1" opacity="1"/><line transform="translate(323,0)" x2="0" y2="5" stroke="#888" stroke-width="1" opacity="1"/><line transform="translate(333,0)" x2="0" y2="5" stroke="#888" stroke-width="1" opacity="1"/><line transform="translate(342,0)" x2="0" y2="5" stroke="#888" stroke-width="1" opacity="1"/><line transform="translate(350,0)" x2="0" y2="5" stroke="#888" stroke-width="1" opacity="1"/><line transform="translate(403,0)" x2="0" y2="5" stroke="#888" stroke-width="1" opacity="1"/><line transform="translate(433,0)" x2="0" y2="5" stroke="#888" stroke-width="1" opacity="1"/><line transform="translate(455,0)" x2="0" y2="5" stroke="#888" stroke-width="1" opacity="1"/><line transform="translate(472,0)" x2="0" y2="5" stroke="#888" stroke-width="1" opacity="1"/><line transform="translate(486,0)" x2="0" y2="5" stroke="#888" stroke-width="1" opacity="1"/><line transform="translate(498,0)" x2="0" y2="5" stroke="#888" stroke-width="1" opacity="1"/><line transform="translate(508,0)" x2="0" y2="5" stroke="#888" stroke-width="1" opacity="1"/><line transform="translate(517,0)" x2="0" y2="5" stroke="#888" stroke-width="1" opacity="1"/><line transform="translate(525,0)" x2="0" y2="5" stroke="#888" stroke-width="1" opacity="1"/><line transform="translate(578,0)" x2="0" y2="5" stroke="#888" stroke-width="1" opacity="1"/><line transform="translate(608,0)" x2="0" y2="5" stroke="#888" stroke-width="1" opacity="1"/><line transform="translate(630,0)" x2="0" y2="5" stroke="#888" stroke-width="1" opacity="1"/><line transform="translate(647,0)" x2="0" y2="5" stroke="#888" stroke-width="1" opacity="1"/><line transform="translate(661,0)" x2="0" y2="5" stroke="#888" stroke-width="1" opacity="1"/><line transform="translate(673,0)" x2="0" y2="5" stroke="#888" stroke-width="1" opacity="1"/><line transform="translate(683,0)" x2="0" y2="5" stroke="#888" stroke-width="1" opacity="1"/><line transform="translate(692,0)" x2="0" y2="5" stroke="#888" stroke-width="1" opacity="1"/><line transform="translate(700,0)" x2="0" y2="5" stroke="#888" stroke-width="1" opacity="1"/></g><g class="mark-text role-axis-label" pointer-events="none"><text text-anchor="start" transform="translate(0,15)" font-family="sans-serif" font-size="10px" fill="#000" opacity="1">10</text><text text-anchor="middle" transform="translate(52.680249241196684,15)" font-family="sans-serif" font-size="10px" fill="#000" opacity="1">20</text><text text-anchor="middle" transform="translate(83.49621957594091,15)" font-family="sans-serif" font-size="10px" fill="#000" opacity="1"/><text text-anchor="middle" transform="translate(105.36049848239338,15)" font-family="sans-serif" font-size="10px" fill="#000" opacity="1"/><text text-anchor="middle" transform="translate(122.31975075880327,15)" font-family="sans-serif" font-size="10px" fill="#000" opacity="1"/><text text-anchor="middle" transform="translate(136.1764688171376,15)" font-family="sans-serif" font-size="10px" fill="#000" opacity="1"/><text text-anchor="middle" transform="translate(147.89215700249494,15)" font-family="sans-serif" font-size="10px" fill="#000" opacity="1"/><text text-anchor="middle" transform="translate(158.04074772359007,15)" font-family="sans-serif" font-size="10px" fill="#000" opacity="1"/><text text-anchor="middle" transform="translate(166.99243915188183,15)" font-family="sans-serif" font-size="10px" fill="#000" opacity="1"/><text text-anchor="middle" transform="translate(175,15)" font-family="sans-serif" font-size="10px" fill="#000" opacity="1">100</text><text text-anchor="middle" transform="translate(227.68024924119663,15)" font-family="sans-serif" font-size="10px" fill="#000" opacity="1">200</text><text text-anchor="middle" transform="translate(258.49621957594087,15)" font-family="sans-serif" font-size="10px" fill="#000" opacity="1"/><text text-anchor="middle" transform="translate(280.3604984823934,15)" font-family="sans-serif" font-size="10px" fill="#000" opacity="1"/><text text-anchor="middle" transform="translate(297.3197507588032,15)" font-family="sans-serif" font-size="10px" fill="#000" opacity="1"/><text text-anchor="middle" transform="translate(311.1764688171376,15)" font-family="sans-serif" font-size="10px" fill="#000" opacity="1"/><text text-anchor="middle" transform="translate(322.8921570024949,15)" font-family="sans-serif" font-size="10px" fill="#000" opacity="1"/><text text-anchor="middle" transform="translate(333.0407477235901,15)" font-family="sans-serif" font-size="10px" fill="#000" opacity="1"/><text text-anchor="middle" transform="translate(341.99243915188185,15)" font-family="sans-serif" font-size="10px" fill="#000" opacity="1"/><text text-anchor="middle" transform="translate(349.99999999999994,15)" font-family="sans-serif" font-size="10px" fill="#000" opacity="1">1k</text><text text-anchor="middle" transform="translate(402.68024924119663,15)" font-family="sans-serif" font-size="10px" fill="#000" opacity="1">2k</text><text text-anchor="middle" transform="translate(433.4962195759408,15)" font-family="sans-serif" font-size="10px" fill="#000" opacity="1"/><text text-anchor="middle" transform="translate(455.3604984823934,15)" font-family="sans-serif" font-size="10px" fill="#000" opacity="1"/><text text-anchor="middle" transform="translate(472.31975075880325,15)" font-family="sans-serif" font-size="10px" fill="#000" opacity="1"/><text text-anchor="middle" transform="translate(486.1764688171375,15)" font-family="sans-serif" font-size="10px" fill="#000" opacity="1"/><text text-anchor="middle" transform="translate(497.8921570024949,15)" font-family="sans-serif" font-size="10px" fill="#000" opacity="1"/><text text-anchor="middle" transform="translate(508.0407477235901,15)" font-family="sans-serif" font-size="10px" fill="#000" opacity="1"/><text text-anchor="middle" transform="translate(516.9924391518819,15)" font-family="sans-serif" font-size="10px" fill="#000" opacity="1"/><text text-anchor="middle" transform="translate(525,15)" font-family="sans-serif" font-size="10px" fill="#000" opacity="1">10k</text><text text-anchor="middle" transform="translate(577.6802492411965,15)" font-family="sans-serif" font-size="10px" fill="#000" opacity="1">20k</text><text text-anchor="middle" transform="translate(608.4962195759409,15)" font-family="sans-serif" font-size="10px" fill="#000" opacity="1"/><text text-anchor="middle" transform="translate(630.3604984823934,15)" font-family="sans-serif" font-size="10px" fill="#000" opacity="1"/><text text-anchor="middle" transform="translate(647.3197507588031,15)" font-family="sans-serif" font-size="10px" fill="#000" opacity="1"/><text text-anchor="middle" transform="translate(661.1764688171376,15)" font-family="sans-serif" font-size="10px" fill="#000" opacity="1"/><text text-anchor="middle" transform="translate(672.8921570024947,15)" font-family="sans-serif" font-size="10px" fill="#000" opacity="1"/><text text-anchor="middle" transform="translate(683.0407477235899,15)" font-family="sans-serif" font-size="10px" fill="#000" opacity="1"/><text text-anchor="middle" transform="translate(691.9924391518816,15)" font-family="sans-serif" font-size="10px" fill="#000" opacity="1"/><text text-anchor="end" transform="translate(700,15)" font-family="sans-serif" font-size="10px" fill="#000" opacity="1">100k</text></g><g class="mark-rule role-axis-domain" pointer-events="none"><line transform="translate(0,0)" x2="700" y2="0" stroke="#888" stroke-width="1" opacity="1"/></g><g class="mark-text role-axis-title" pointer-events="none"><text text-anchor="middle" transform="translate(350,30)" font-family="sans-serif" font-size="11px" font-weight="bold" fill="#000" opacity="1">RowCount</text></g></g><path class="foreground" aria-hidden="true" d="" pointer-events="none" display="none"/></g></g><g class="mark-group role-axis" role="graphics-symbol" aria-roledescription="axis" aria-label="Y-axis titled 'Mean (ms)' for a linear scale with values from 0 to 80,000"><g transform="translate(0.5,0.5)"><path class="background" aria-hidden="true" d="M0,0h0v0h0Z" pointer-events="none"/><g><g class="mark-rule role-axis-tick" pointer-events="none"><line transform="translate(0,420)" x2="-5" y2="0" stroke="#888" stroke-width="1" opacity="1"/><line transform="translate(0,368)" x2="-5" y2="0" stroke="#888" stroke-width="1" opacity="1"/><line transform="translate(0,315)" x2="-5" y2="0" stroke="#888" stroke-width="1" opacity="1"/><line transform="translate(0,263)" x2="-5" y2="0" stroke="#888" stroke-width="1" opacity="1"/><line transform="translate(0,210)" x2="-5" y2="0" stroke="#888" stroke-width="1" opacity="1"/><line transform="translate(0,158)" x2="-5" y2="0" stroke="#888" stroke-width="1" opacity="1"/><line transform="translate(0,105)" x2="-5" y2="0" stroke="#888" stroke-width="1" opacity="1"/><line transform="translate(0,53)" x2="-5" y2="0" stroke="#888" stroke-width="1" opacity="1"/><line transform="translate(0,0)" x2="-5" y2="0" stroke="#888" stroke-width="1" opacity="1"/></g><g class="mark-text role-axis-label" pointer-events="none"><text text-anchor="end" transform="translate(-7,423)" font-family="sans-serif" font-size="10px" fill="#000" opacity="1">0</text><text text-anchor="end" transform="translate(-7,370.5)" font-family="sans-serif" font-size="10px" fill="#000" opacity="1">10,000</text><text text-anchor="end" transform="translate(-7,318)" font-family="sans-serif" font-size="10px" fill="#000" opacity="1">20,000</text><text text-anchor="end" transform="translate(-7,265.5)" font-family="sans-serif" font-size="10px" fill="#000" opacity="1">30,000</text><text text-anchor="end" transform="translate(-7,213)" font-family="sans-serif" font-size="10px" fill="#000" opacity="1">40,000</text><text text-anchor="end" transform="translate(-7,160.5)" font-family="sans-serif" font-size="10px" fill="#000" opacity="1">50,000</text><text text-anchor="end" transform="translate(-7,108)" font-family="sans-serif" font-size="10px" fill="#000" opacity="1">60,000</text><text text-anchor="end" transform="translate(-7,55.5)" font-family="sans-serif" font-size="10px" fill="#000" opacity="1">70,000</text><text text-anchor="end" transform="translate(-7,3)" font-family="sans-serif" font-size="10px" fill="#000" opacity="1">80,000</text></g><g class="mark-rule role-axis-domain" pointer-events="none"><line transform="translate(0,420)" x2="0" y2="-420" stroke="#888" stroke-width="1" opacity="1"/></g><g class="mark-text role-axis-title" pointer-events="none"><text text-anchor="middle" transform="translate(-41.53993225097656,210) rotate(-90) translate(0,-2)" font-family="sans-serif" font-size="11px" font-weight="bold" fill="#000" opacity="1">Mean (ms)</text></g></g><path class="foreground" aria-hidden="true" d="" pointer-events="none" display="none"/></g></g><g class="mark-group role-scope layer_0_pathgroup" role="graphics-object" aria-roledescription="group mark container"><g transform="translate(0,0)"><path class="background" aria-hidden="true" d="M0,0h700v420h-700Z"/><g><g class="mark-line role-mark layer_0_marks" role="graphics-object" aria-roledescription="line mark container"><path aria-label="RowCount: 10; Mean (ms): 10.88; Method: PostgreSQL jsonb (GIN)" role="graphics-symbol" aria-roledescription="line mark" d="M0,419.943L350,416.347L525,381.677L700,44.124" stroke="#f58518" stroke-width="2"/></g></g><path class="foreground" aria-hidden="true" d="" display="none"/></g><g transform="translate(0,0)"><path class="background" aria-hidden="true" d="M0,0h700v420h-700Z"/><g><g class="mark-line role-mark layer_0_marks" role="graphics-object" aria-roledescription="line mark container"><path aria-label="RowCount: 10; Mean (ms): 16.12; Method: MySQL JSON" role="graphics-symbol" aria-roledescription="line mark" d="M0,419.915L350,415.074L525,376.368L700,12.125" stroke="#4c78a8" stroke-width="2"/></g></g><path class="foreground" aria-hidden="true" d="" display="none"/></g><g transform="translate(0,0)"><path class="background" aria-hidden="true" d="M0,0h700v420h-700Z"/><g><g class="mark-line role-mark layer_0_marks" role="graphics-object" aria-roledescription="line mark container"><path aria-label="RowCount: 10; Mean (ms): 19.8; Method: PostgreSQL jsonb (No GIN)" role="graphics-symbol" aria-roledescription="line mark" d="M0,419.896L350,416.325L525,382.975L700,44.035" stroke="#e45756" stroke-width="2"/></g></g><path class="foreground" aria-hidden="true" d="" display="none"/></g></g><g class="mark-symbol role-mark layer_1_marks" role="graphics-object" aria-roledescription="symbol mark container"><path aria-label="RowCount: 10; Mean (ms): 10.88; Method: PostgreSQL jsonb (GIN)" role="graphics-symbol" aria-roledescription="point" transform="translate(0,419.94288)" d="M2.739,0A2.739,2.739,0,1,1,-2.739,0A2.739,2.739,0,1,1,2.739,0" fill="#f58518" stroke-width="2" opacity="1"/><path aria-label="RowCount: 10; Mean (ms): 16.12; Method: MySQL JSON" role="graphics-symbol" aria-roledescription="point" transform="translate(0,419.91537)" d="M2.739,0A2.739,2.739,0,1,1,-2.739,0A2.739,2.739,0,1,1,2.739,0" fill="#4c78a8" stroke-width="2" opacity="1"/><path aria-label="RowCount: 10; Mean (ms): 19.8; Method: PostgreSQL jsonb (No GIN)" role="graphics-symbol" aria-roledescription="point" transform="translate(0,419.89605)" d="M2.739,0A2.739,2.739,0,1,1,-2.739,0A2.739,2.739,0,1,1,2.739,0" fill="#e45756" stroke-width="2" opacity="1"/><path aria-label="RowCount: 1k; Mean (ms): 695.73; Method: PostgreSQL jsonb (GIN)" role="graphics-symbol" aria-roledescription="point" transform="translate(349.99999999999994,416.3474175)" d="M2.739,0A2.739,2.739,0,1,1,-2.739,0A2.739,2.739,0,1,1,2.739,0" fill="#f58518" stroke-width="2" opacity="1"/><path aria-label="RowCount: 1k; Mean (ms): 700.01; Method: PostgreSQL jsonb (No GIN)" role="graphics-symbol" aria-roledescription="point" transform="translate(349.99999999999994,416.32494749999995)" d="M2.739,0A2.739,2.739,0,1,1,-2.739,0A2.739,2.739,0,1,1,2.739,0" fill="#e45756" stroke-width="2" opacity="1"/><path aria-label="RowCount: 1k; Mean (ms): 938.38; Method: MySQL JSON" role="graphics-symbol" aria-roledescription="point" transform="translate(349.99999999999994,415.073505)" d="M2.739,0A2.739,2.739,0,1,1,-2.739,0A2.739,2.739,0,1,1,2.739,0" fill="#4c78a8" stroke-width="2" opacity="1"/><path aria-label="RowCount: 10k; Mean (ms): 7052.34; Method: PostgreSQL jsonb (No GIN)" role="graphics-symbol" aria-roledescription="point" transform="translate(525,382.975215)" d="M2.739,0A2.739,2.739,0,1,1,-2.739,0A2.739,2.739,0,1,1,2.739,0" fill="#e45756" stroke-width="2" opacity="1"/><path aria-label="RowCount: 10k; Mean (ms): 7299.68; Method: PostgreSQL jsonb (GIN)" role="graphics-symbol" aria-roledescription="point" transform="translate(525,381.67668)" d="M2.739,0A2.739,2.739,0,1,1,-2.739,0A2.739,2.739,0,1,1,2.739,0" fill="#f58518" stroke-width="2" opacity="1"/><path aria-label="RowCount: 10k; Mean (ms): 8310.88; Method: MySQL JSON" role="graphics-symbol" aria-roledescription="point" transform="translate(525,376.36788)" d="M2.739,0A2.739,2.739,0,1,1,-2.739,0A2.739,2.739,0,1,1,2.739,0" fill="#4c78a8" stroke-width="2" opacity="1"/><path aria-label="RowCount: 100k; Mean (ms): 71595.4; Method: PostgreSQL jsonb (GIN)" role="graphics-symbol" aria-roledescription="point" transform="translate(700,44.124150000000014)" d="M2.739,0A2.739,2.739,0,1,1,-2.739,0A2.739,2.739,0,1,1,2.739,0" fill="#f58518" stroke-width="2" opacity="1"/><path aria-label="RowCount: 100k; Mean (ms): 71612.43; Method: PostgreSQL jsonb (No GIN)" role="graphics-symbol" aria-roledescription="point" transform="translate(700,44.03474250000006)" d="M2.739,0A2.739,2.739,0,1,1,-2.739,0A2.739,2.739,0,1,1,2.739,0" fill="#e45756" stroke-width="2" opacity="1"/><path aria-label="RowCount: 100k; Mean (ms): 77690.55; Method: MySQL JSON" role="graphics-symbol" aria-roledescription="point" transform="translate(700,12.124612499999962)" d="M2.739,0A2.739,2.739,0,1,1,-2.739,0A2.739,2.739,0,1,1,2.739,0" fill="#4c78a8" stroke-width="2" opacity="1"/></g><g class="mark-group role-legend" role="graphics-symbol" aria-roledescription="legend" aria-label="Symbol legend titled 'Method' for fill color and stroke color with 3 values: MySQL JSON, PostgreSQL jsonb (GIN), PostgreSQL jsonb (No GIN)"><g transform="translate(720,0)"><path class="background" aria-hidden="true" d="M0,0h141v61h-141Z" pointer-events="none"/><g><g class="mark-group role-legend-entry"><g transform="translate(0,16)"><path class="background" aria-hidden="true" d="M0,0h0v0h0Z" pointer-events="none"/><g><g class="mark-group role-scope" role="graphics-object" aria-roledescription="group mark container"><g transform="translate(0,0)"><path class="background" aria-hidden="true" d="M0,0h140.8426055908203v12.5h-140.8426055908203Z" pointer-events="none" opacity="1"/><g><g class="mark-symbol role-legend-symbol" pointer-events="none"><path transform="translate(6,6)" d="M5,0A5,5,0,1,1,-5,0A5,5,0,1,1,5,0" fill="#4c78a8" stroke="#4c78a8" stroke-width="1.5" opacity="1"/></g><g class="mark-text role-legend-label" pointer-events="none"><text text-anchor="start" transform="translate(16,9)" font-family="sans-serif" font-size="10px" fill="#000" opacity="1">MySQL JSON</text></g></g><path class="foreground" aria-hidden="true" d="" pointer-events="none" display="none"/></g><g transform="translate(0,16)"><path class="background" aria-hidden="true" d="M0,0h140.8426055908203v12.5h-140.8426055908203Z" pointer-events="none" opacity="1"/><g><g class="mark-symbol role-legend-symbol" pointer-events="none"><path transform="translate(6,6)" d="M5,0A5,5,0,1,1,-5,0A5,5,0,1,1,5,0" fill="#f58518" stroke="#f58518" stroke-width="1.5" opacity="1"/></g><g class="mark-text role-legend-label" pointer-events="none"><text text-anchor="start" transform="translate(16,9)" font-family="sans-serif" font-size="10px" fill="#000" opacity="1">PostgreSQL jsonb (GIN)</text></g></g><path class="foreground" aria-hidden="true" d="" pointer-events="none" display="none"/></g><g transform="translate(0,32)"><path class="background" aria-hidden="true" d="M0,0h140.8426055908203v12.5h-140.8426055908203Z" pointer-events="none" opacity="1"/><g><g class="mark-symbol role-legend-symbol" pointer-events="none"><path transform="translate(6,6)" d="M5,0A5,5,0,1,1,-5,0A5,5,0,1,1,5,0" fill="#e45756" stroke="#e45756" stroke-width="1.5" opacity="1"/></g><g class="mark-text role-legend-label" pointer-events="none"><text text-anchor="start" transform="translate(16,9)" font-family="sans-serif" font-size="10px" fill="#000" opacity="1">PostgreSQL jsonb (No GIN)</text></g></g><path class="foreground" aria-hidden="true" d="" pointer-events="none" display="none"/></g></g></g><path class="foreground" aria-hidden="true" d="" pointer-events="none" display="none"/></g></g><g class="mark-text role-legend-title" pointer-events="none"><text text-anchor="start" transform="translate(0,9)" font-family="sans-serif" font-size="11px" font-weight="bold" fill="#000" opacity="1">Method</text></g></g><path class="foreground" aria-hidden="true" d="" pointer-events="none" display="none"/></g></g><g class="mark-group role-title"><g transform="translate(350,-22)"><path class="background" aria-hidden="true" d="M0,0h0v0h0Z" pointer-events="none"/><g><g class="mark-text role-title-text" role="graphics-symbol" aria-roledescription="title" aria-label="Title text 'Insert Benchmark: Mean Time by RowCount'" pointer-events="none"><text text-anchor="middle" transform="translate(0,10)" font-family="sans-serif" font-size="13px" font-weight="bold" fill="#000" opacity="1">Insert Benchmark: Mean Time by RowCount</text></g></g><path class="foreground" aria-hidden="true" d="" pointer-events="none" display="none"/></g></g></g><path class="foreground" aria-hidden="true" d="" display="none"/></g></g></g></svg>