<svg xmlns="http://www.w3.org/2000/svg" xmlns:xlink="http://www.w3.org/1999/xlink" version="1.1" class="marks" width="1546" height="1076" viewBox="0 0 773 538"><rect width="773" height="538" fill="white"/><g fill="none" stroke-miterlimit="10" transform="translate(43,31)"><g class="mark-group role-frame root" role="graphics-object" aria-roledescription="group mark container"><g transform="translate(0,0)"><path class="background" aria-hidden="true" d="M0.5,0.5h720v420h-720Z" stroke="#ddd"/><g><g class="mark-group role-axis" aria-hidden="true"><g transform="translate(0.5,420.5)"><path class="background" aria-hidden="true" d="M0,0h0v0h0Z" pointer-events="none"/><g><g class="mark-rule role-axis-grid" pointer-events="none"><line transform="translate(0,-420)" x2="0" y2="420" stroke="#ddd" stroke-width="1" opacity="1"/><line transform="translate(54,-420)" x2="0" y2="420" stroke="#ddd" stroke-width="1" opacity="1"/><line transform="translate(86,-420)" x2="0" y2="420" stroke="#ddd" stroke-width="1" opacity="1"/><line transform="translate(108,-420)" x2="0" y2="420" stroke="#ddd" stroke-width="1" opacity="1"/><line transform="translate(126,-420)" x2="0" y2="420" stroke="#ddd" stroke-width="1" opacity="1"/><line transform="translate(140,-420)" x2="0" y2="420" stroke="#ddd" stroke-width="1" opacity="1"/><line transform="translate(152,-420)" x2="0" y2="420" stroke="#ddd" stroke-width="1" opacity="1"/><line transform="translate(163,-420)" x2="0" y2="420" stroke="#ddd" stroke-width="1" opacity="1"/><line transform="translate(172,-420)" x2="0" y2="420" stroke="#ddd" stroke-width="1" opacity="1"/><line transform="translate(180,-420)" x2="0" y2="420" stroke="#ddd" stroke-width="1" opacity="1"/><line transform="translate(234,-420)" x2="0" y2="420" stroke="#ddd" stroke-width="1" opacity="1"/><line transform="translate(266,-420)" x2="0" y2="420" stroke="#ddd" stroke-width="1" opacity="1"/><line transform="translate(288,-420)" x2="0" y2="420" stroke="#ddd" stroke-width="1" opacity="1"/><line transform="translate(306,-420)" x2="0" y2="420" stroke="#ddd" stroke-width="1" opacity="1"/><line transform="translate(320,-420)" x2="0" y2="420" stroke="#ddd" stroke-width="1" opacity="1"/><line transform="translate(332,-420)" x2="0" y2="420" stroke="#ddd" stroke-width="1" opacity="1"/><line transform="translate(343,-420)" x2="0" y2="420" stroke="#ddd" stroke-width="1" opacity="1"/><line transform="translate(352,-420)" x2="0" y2="420" stroke="#ddd" stroke-width="1" opacity="1"/><line transform="translate(360,-420)" x2="0" y2="420" stroke="#ddd" stroke-width="1" opacity="1"/><line transform="translate(414,-420)" x2="0" y2="420" stroke="#ddd" stroke-width="1" opacity="1"/><line transform="translate(446,-420)" x2="0" y2="420" stroke="#ddd" stroke-width="1" opacity="1"/><line transform="translate(468,-420)" x2="0" y2="420" stroke="#ddd" stroke-width="1" opacity="1"/><line transform="translate(486,-420)" x2="0" y2="420" stroke="#ddd" stroke-width="1" opacity="1"/><line transform="translate(500,-420)" x2="0" y2="420" stroke="#ddd" stroke-width="1" opacity="1"/><line transform="translate(512,-420)" x2="0" y2="420" stroke="#ddd" stroke-width="1" opacity="1"/><line transform="translate(523,-420)" x2="0" y2="420" stroke="#ddd" stroke-width="1" opacity="1"/><line transform="translate(532,-420)" x2="0" y2="420" stroke="#ddd" stroke-width="1" opacity="1"/><line transform="translate(540,-420)" x2="0" y2="420" stroke="#ddd" stroke-width="1" opacity="1"/><line transform="translate(594,-420)" x2="0" y2="420" stroke="#ddd" stroke-width="1" opacity="1"/><line transform="translate(626,-420)" x2="0" y2="420" stroke="#ddd" stroke-width="1" opacity="1"/><line transform="translate(648,-420)" x2="0" y2="420" stroke="#ddd" stroke-width="1" opacity="1"/><line transform="translate(666,-420)" x2="0" y2="420" stroke="#ddd" stroke-width="1" opacity="1"/><line transform="translate(680,-420)" x2="0" y2="420" stroke="#ddd" stroke-width="1" opacity="1"/><line transform="translate(692,-420)" x2="0" y2="420" stroke="#ddd" stroke-width="1" opacity="1"/><line transform="translate(703,-420)" x2="0" y2="420" stroke="#ddd" stroke-width="1" opacity="1"/><line transform="translate(712,-420)" x2="0" y2="420" stroke="#ddd" stroke-width="1" opacity="1"/><line transform="translate(720,-420)" x2="0" y2="420" stroke="#ddd" stroke-width="1" opacity="1"/></g></g><path class="foreground" aria-hidden="true" d="" pointer-events="none" display="none"/></g></g><g class="mark-group role-axis" aria-hidden="true"><g transform="translate(0.5,0.5)"><path class="background" aria-hidden="true" d="M0,0h0v0h0Z" pointer-events="none"/><g><g class="mark-rule role-axis-grid" pointer-events="none"><line transform="translate(0,420)" x2="720" y2="0" stroke="#ddd" stroke-width="1" opacity="1"/><line transform="translate(0,388)" x2="720" y2="0" stroke="#ddd" stroke-width="1" opacity="1"/><line transform="translate(0,355)" x2="720" y2="0" stroke="#ddd" stroke-width="1" opacity="1"/><line transform="translate(0,323)" x2="720" y2="0" stroke="#ddd" stroke-width="1" opacity="1"/><line transform="translate(0,291)" x2="720" y2="0" stroke="#ddd" stroke-width="1" opacity="1"/><line transform="translate(0,258)" x2="720" y2="0" stroke="#ddd" stroke-width="1" opacity="1"/><line transform="translate(0,226)" x2="720" y2="0" stroke="#ddd" stroke-width="1" opacity="1"/><line transform="translate(0,194)" x2="720" y2="0" stroke="#ddd" stroke-width="1" opacity="1"/><line transform="translate(0,162)" x2="720" y2="0" stroke="#ddd" stroke-width="1" opacity="1"/><line transform="translate(0,129)" x2="720" y2="0" stroke="#ddd" stroke-width="1" opacity="1"/><line transform="translate(0,97)" x2="720" y2="0" stroke="#ddd" stroke-width="1" opacity="1"/><line transform="translate(0,65)" x2="720" y2="0" stroke="#ddd" stroke-width="1" opacity="1"/><line transform="translate(0,32)" x2="720" y2="0" stroke="#ddd" stroke-width="1" opacity="1"/><line transform="translate(0,0)" x2="720" y2="0" stroke="#ddd" stroke-width="1" opacity="1"/></g></g><path class="foreground" aria-hidden="true" d="" pointer-events="none" display="none"/></g></g><g class="mark-group role-axis" role="graphics-symbol" aria-roledescription="axis" aria-label="X-axis titled 'Row Count' for a log scale with values from 10 to 100,000"><g transform="translate(0.5,420.5)"><path class="background" aria-hidden="true" d="M0,0h0v0h0Z" pointer-events="none"/><g><g class="mark-rule role-axis-tick" pointer-events="none"><line transform="translate(0,0)" x2="0" y2="5" stroke="#888" stroke-width="1" opacity="1"/><line transform="translate(54,0)" x2="0" y2="5" stroke="#888" stroke-width="1" opacity="1"/><line transform="translate(86,0)" x2="0" y2="5" stroke="#888" stroke-width="1" opacity="1"/><line transform="translate(108,0)" x2="0" y2="5" stroke="#888" stroke-width="1" opacity="1"/><line transform="translate(126,0)" x2="0" y2="5" stroke="#888" stroke-width="1" opacity="1"/><line transform="translate(140,0)" x2="0" y2="5" stroke="#888" stroke-width="1" opacity="1"/><line transform="translate(152,0)" x2="0" y2="5" stroke="#888" stroke-width="1" opacity="1"/><line transform="translate(163,0)" x2="0" y2="5" stroke="#888" stroke-width="1" opacity="1"/><line transform="translate(172,0)" x2="0" y2="5" stroke="#888" stroke-width="1" opacity="1"/><line transform="translate(180,0)" x2="0" y2="5" stroke="#888" stroke-width="1" opacity="1"/><line transform="translate(234,0)" x2="0" y2="5" stroke="#888" stroke-width="1" opacity="1"/><line transform="translate(266,0)" x2="0" y2="5" stroke="#888" stroke-width="1" opacity="1"/><line transform="translate(288,0)" x2="0" y2="5" stroke="#888" stroke-width="1" opacity="1"/><line transform="translate(306,0)" x2="0" y2="5" stroke="#888" stroke-width="1" opacity="1"/><line transform="translate(320,0)" x2="0" y2="5" stroke="#888" stroke-width="1" opacity="1"/><line transform="translate(332,0)" x2="0" y2="5" stroke="#888" stroke-width="1" opacity="1"/><line transform="translate(343,0)" x2="0" y2="5" stroke="#888" stroke-width="1" opacity="1"/><line transform="translate(352,0)" x2="0" y2="5" stroke="#888" stroke-width="1" opacity="1"/><line transform="translate(360,0)" x2="0" y2="5" stroke="#888" stroke-width="1" opacity="1"/><line transform="translate(414,0)" x2="0" y2="5" stroke="#888" stroke-width="1" opacity="1"/><line transform="translate(446,0)" x2="0" y2="5" stroke="#888" stroke-width="1" opacity="1"/><line transform="translate(468,0)" x2="0" y2="5" stroke="#888" stroke-width="1" opacity="1"/><line transform="translate(486,0)" x2="0" y2="5" stroke="#888" stroke-width="1" opacity="1"/><line transform="translate(500,0)" x2="0" y2="5" stroke="#888" stroke-width="1" opacity="1"/><line transform="translate(512,0)" x2="0" y2="5" stroke="#888" stroke-width="1" opacity="1"/><line transform="translate(523,0)" x2="0" y2="5" stroke="#888" stroke-width="1" opacity="1"/><line transform="translate(532,0)" x2="0" y2="5" stroke="#888" stroke-width="1" opacity="1"/><line transform="translate(540,0)" x2="0" y2="5" stroke="#888" stroke-width="1" opacity="1"/><line transform="translate(594,0)" x2="0" y2="5" stroke="#888" stroke-width="1" opacity="1"/><line transform="translate(626,0)" x2="0" y2="5" stroke="#888" stroke-width="1" opacity="1"/><line transform="translate(648,0)" x2="0" y2="5" stroke="#888" stroke-width="1" opacity="1"/><line transform="translate(666,0)" x2="0" y2="5" stroke="#888" stroke-width="1" opacity="1"/><line transform="translate(680,0)" x2="0" y2="5" stroke="#888" stroke-width="1" opacity="1"/><line transform="translate(692,0)" x2="0" y2="5" stroke="#888" stroke-width="1" opacity="1"/><line transform="translate(703,0)" x2="0" y2="5" stroke="#888" stroke-width="1" opacity="1"/><line transform="translate(712,0)" x2="0" y2="5" stroke="#888" stroke-width="1" opacity="1"/><line transform="translate(720,0)" x2="0" y2="5" stroke="#888" stroke-width="1" opacity="1"/></g><g class="mark-text role-axis-label" pointer-events="none"><text text-anchor="start" transform="translate(0,16)" font-family="sans-serif" font-size="12px" fill="#000" opacity="1">10</text><text text-anchor="middle" transform="translate(54.18539921951658,16)" font-family="sans-serif" font-size="12px" fill="#000" opacity="1">20</text><text text-anchor="middle" transform="translate(85.88182584953921,16)" font-family="sans-serif" font-size="12px" fill="#000" opacity="1"/><text text-anchor="middle" transform="translate(108.3707984390332,16)" font-family="sans-serif" font-size="12px" fill="#000" opacity="1"/><text text-anchor="middle" transform="translate(125.81460078048336,16)" font-family="sans-serif" font-size="12px" fill="#000" opacity="1"/><text text-anchor="middle" transform="translate(140.06722506905578,16)" font-family="sans-serif" font-size="12px" fill="#000" opacity="1"/><text text-anchor="middle" transform="translate(152.11764720256622,16)" font-family="sans-serif" font-size="12px" fill="#000" opacity="1"/><text text-anchor="middle" transform="translate(162.55619765854976,16)" font-family="sans-serif" font-size="12px" fill="#000" opacity="1"/><text text-anchor="middle" transform="translate(171.76365169907842,16)" font-family="sans-serif" font-size="12px" fill="#000" opacity="1"/><text text-anchor="middle" transform="translate(180,16)" font-family="sans-serif" font-size="12px" fill="#000" opacity="1">100</text><text text-anchor="middle" transform="translate(234.18539921951654,16)" font-family="sans-serif" font-size="12px" fill="#000" opacity="1">200</text><text text-anchor="middle" transform="translate(265.8818258495392,16)" font-family="sans-serif" font-size="12px" fill="#000" opacity="1"/><text text-anchor="middle" transform="translate(288.3707984390332,16)" font-family="sans-serif" font-size="12px" fill="#000" opacity="1"/><text text-anchor="middle" transform="translate(305.8146007804833,16)" font-family="sans-serif" font-size="12px" fill="#000" opacity="1"/><text text-anchor="middle" transform="translate(320.06722506905584,16)" font-family="sans-serif" font-size="12px" fill="#000" opacity="1"/><text text-anchor="middle" transform="translate(332.11764720256616,16)" font-family="sans-serif" font-size="12px" fill="#000" opacity="1"/><text text-anchor="middle" transform="translate(342.5561976585498,16)" font-family="sans-serif" font-size="12px" fill="#000" opacity="1"/><text text-anchor="middle" transform="translate(351.7636516990785,16)" font-family="sans-serif" font-size="12px" fill="#000" opacity="1"/><text text-anchor="middle" transform="translate(359.99999999999994,16)" font-family="sans-serif" font-size="12px" fill="#000" opacity="1">1,000</text><text text-anchor="middle" transform="translate(414.18539921951657,16)" font-family="sans-serif" font-size="12px" fill="#000" opacity="1">2,000</text><text text-anchor="middle" transform="translate(445.8818258495391,16)" font-family="sans-serif" font-size="12px" fill="#000" opacity="1"/><text text-anchor="middle" transform="translate(468.3707984390332,16)" font-family="sans-serif" font-size="12px" fill="#000" opacity="1"/><text text-anchor="middle" transform="translate(485.8146007804834,16)" font-family="sans-serif" font-size="12px" fill="#000" opacity="1"/><text text-anchor="middle" transform="translate(500.0672250690557,16)" font-family="sans-serif" font-size="12px" fill="#000" opacity="1"/><text text-anchor="middle" transform="translate(512.1176472025662,16)" font-family="sans-serif" font-size="12px" fill="#000" opacity="1"/><text text-anchor="middle" transform="translate(522.5561976585498,16)" font-family="sans-serif" font-size="12px" fill="#000" opacity="1"/><text text-anchor="middle" transform="translate(531.7636516990784,16)" font-family="sans-serif" font-size="12px" fill="#000" opacity="1"/><text text-anchor="middle" transform="translate(540,16)" font-family="sans-serif" font-size="12px" fill="#000" opacity="1">10,000</text><text text-anchor="middle" transform="translate(594.1853992195165,16)" font-family="sans-serif" font-size="12px" fill="#000" opacity="1">20,000</text><text text-anchor="middle" transform="translate(625.8818258495393,16)" font-family="sans-serif" font-size="12px" fill="#000" opacity="1"/><text text-anchor="middle" transform="translate(648.3707984390331,16)" font-family="sans-serif" font-size="12px" fill="#000" opacity="1"/><text text-anchor="middle" transform="translate(665.8146007804833,16)" font-family="sans-serif" font-size="12px" fill="#000" opacity="1"/><text text-anchor="middle" transform="translate(680.0672250690558,16)" font-family="sans-serif" font-size="12px" fill="#000" opacity="1"/><text text-anchor="middle" transform="translate(692.117647202566,16)" font-family="sans-serif" font-size="12px" fill="#000" opacity="1"/><text text-anchor="middle" transform="translate(702.5561976585496,16)" font-family="sans-serif" font-size="12px" fill="#000" opacity="1"/><text text-anchor="middle" transform="translate(711.7636516990783,16)" font-family="sans-serif" font-size="12px" fill="#000" opacity="1"/><text text-anchor="end" transform="translate(720,16)" font-family="sans-serif" font-size="12px" fill="#000" opacity="1">100,000</text></g><g class="mark-rule role-axis-domain" pointer-events="none"><line transform="translate(0,0)" x2="720" y2="0" stroke="#888" stroke-width="1" opacity="1"/></g><g class="mark-text role-axis-title" pointer-events="none"><text text-anchor="middle" transform="translate(360,32)" font-family="sans-serif" font-size="13px" font-weight="bold" fill="#000" opacity="1">Row Count</text></g></g><path class="foreground" aria-hidden="true" d="" pointer-events="none" display="none"/></g></g><g class="mark-group role-axis" role="graphics-symbol" aria-roledescription="axis" aria-label="Y-axis titled 'Mean Latency (ms)' for a linear scale with values from 0 to 65"><g transform="translate(0.5,0.5)"><path class="background" aria-hidden="true" d="M0,0h0v0h0Z" pointer-events="none"/><g><g class="mark-rule role-axis-tick" pointer-events="none"><line transform="translate(0,420)" x2="-5" y2="0" stroke="#888" stroke-width="1" opacity="1"/><line transform="translate(0,388)" x2="-5" y2="0" stroke="#888" stroke-width="1" opacity="1"/><line transform="translate(0,355)" x2="-5" y2="0" stroke="#888" stroke-width="1" opacity="1"/><line transform="translate(0,323)" x2="-5" y2="0" stroke="#888" stroke-width="1" opacity="1"/><line transform="translate(0,291)" x2="-5" y2="0" stroke="#888" stroke-width="1" opacity="1"/><line transform="translate(0,258)" x2="-5" y2="0" stroke="#888" stroke-width="1" opacity="1"/><line transform="translate(0,226)" x2="-5" y2="0" stroke="#888" stroke-width="1" opacity="1"/><line transform="translate(0,194)" x2="-5" y2="0" stroke="#888" stroke-width="1" opacity="1"/><line transform="translate(0,162)" x2="-5" y2="0" stroke="#888" stroke-width="1" opacity="1"/><line transform="translate(0,129)" x2="-5" y2="0" stroke="#888" stroke-width="1" opacity="1"/><line transform="translate(0,97)" x2="-5" y2="0" stroke="#888" stroke-width="1" opacity="1"/><line transform="translate(0,65)" x2="-5" y2="0" stroke="#888" stroke-width="1" opacity="1"/><line transform="translate(0,32)" x2="-5" y2="0" stroke="#888" stroke-width="1" opacity="1"/><line transform="translate(0,0)" x2="-5" y2="0" stroke="#888" stroke-width="1" opacity="1"/></g><g class="mark-text role-axis-label" pointer-events="none"><text text-anchor="end" transform="translate(-7,424)" font-family="sans-serif" font-size="12px" fill="#000" opacity="1">0</text><text text-anchor="end" transform="translate(-7,391.69230769230774)" font-family="sans-serif" font-size="12px" fill="#000" opacity="1">5</text><text text-anchor="end" transform="translate(-7,359.38461538461536)" font-family="sans-serif" font-size="12px" fill="#000" opacity="1">10</text><text text-anchor="end" transform="translate(-7,327.07692307692304)" font-family="sans-serif" font-size="12px" fill="#000" opacity="1">15</text><text text-anchor="end" transform="translate(-7,294.7692307692308)" font-family="sans-serif" font-size="12px" fill="#000" opacity="1">20</text><text text-anchor="end" transform="translate(-7,262.46153846153845)" font-family="sans-serif" font-size="12px" fill="#000" opacity="1">25</text><text text-anchor="end" transform="translate(-7,230.15384615384613)" font-family="sans-serif" font-size="12px" fill="#000" opacity="1">30</text><text text-anchor="end" transform="translate(-7,197.84615384615387)" font-family="sans-serif" font-size="12px" fill="#000" opacity="1">35</text><text text-anchor="end" transform="translate(-7,165.53846153846152)" font-family="sans-serif" font-size="12px" fill="#000" opacity="1">40</text><text text-anchor="end" transform="translate(-7,133.23076923076923)" font-family="sans-serif" font-size="12px" fill="#000" opacity="1">45</text><text text-anchor="end" transform="translate(-7,100.9230769230769)" font-family="sans-serif" font-size="12px" fill="#000" opacity="1">50</text><text text-anchor="end" transform="translate(-7,68.61538461538461)" font-family="sans-serif" font-size="12px" fill="#000" opacity="1">55</text><text text-anchor="end" transform="translate(-7,36.307692307692285)" font-family="sans-serif" font-size="12px" fill="#000" opacity="1">60</text><text text-anchor="end" transform="translate(-7,4)" font-family="sans-serif" font-size="12px" fill="#000" opacity="1">65</text></g><g class="mark-rule role-axis-domain" pointer-events="none"><line transform="translate(0,420)" x2="0" y2="-420" stroke="#888" stroke-width="1" opacity="1"/></g><g class="mark-text role-axis-title" pointer-events="none"><text text-anchor="middle" transform="translate(-24.319976806640625,210) rotate(-90) translate(0,-3)" font-family="sans-serif" font-size="13px" font-weight="bold" fill="#000" opacity="1">Mean Latency (ms)</text></g></g><path class="foreground" aria-hidden="true" d="" pointer-events="none" display="none"/></g></g><g class="mark-group role-scope layer_0_pathgroup" role="graphics-object" aria-roledescription="group mark container"><g transform="translate(0,0)"><path class="background" aria-hidden="true" d="M0,0h720v420h-720Z"/><g><g class="mark-line role-mark layer_0_marks" role="graphics-object" aria-roledescription="line mark container"><path aria-label="Row Count: 10; Mean Latency (ms): 1.167; Method: Query - PostgreSQL jsonb (No GIN); Mean (ms): 1.167; Median (ms): 1.169; StdDev (ms): 0.0647; Error (ms): 1.181; Min (ms): 1.101; Max (ms): 1.230; Allocated (KB): 3.70" role="graphics-symbol" aria-roledescription="line mark" d="M0,412.459L360,409.468L540,389.359L720,178.384" stroke="#e45756" stroke-width="3"/></g></g><path class="foreground" aria-hidden="true" d="" display="none"/></g><g transform="translate(0,0)"><path class="background" aria-hidden="true" d="M0,0h720v420h-720Z"/><g><g class="mark-line role-mark layer_0_marks" role="graphics-object" aria-roledescription="line mark container"><path aria-label="Row Count: 10; Mean Latency (ms): 1.177; Method: Query - PostgreSQL jsonb (GIN); Mean (ms): 1.177; Median (ms): 1.189; StdDev (ms): 0.1202; Error (ms): 2.193; Min (ms): 1.051; Max (ms): 1.291; Allocated (KB): 3.51" role="graphics-symbol" aria-roledescription="line mark" d="M0,412.395L360,407.865L540,388.448L720,186.7" stroke="#f58518" stroke-width="3"/></g></g><path class="foreground" aria-hidden="true" d="" display="none"/></g><g transform="translate(0,0)"><path class="background" aria-hidden="true" d="M0,0h720v420h-720Z"/><g><g class="mark-line role-mark layer_0_marks" role="graphics-object" aria-roledescription="line mark container"><path aria-label="Row Count: 10; Mean Latency (ms): 2.119; Method: Query - MySQL JSON; Mean (ms): 2.119; Median (ms): 2.109; StdDev (ms): 0.2412; Error (ms): 4.400; Min (ms): 1.883; Max (ms): 2.365; Allocated (KB): 5.45" role="graphics-symbol" aria-roledescription="line mark" d="M0,406.308L360,403.484L540,369.426L720,19.617" stroke="#4c78a8" stroke-width="3"/></g></g><path class="foreground" aria-hidden="true" d="" display="none"/></g></g><g class="mark-symbol role-mark layer_1_marks" role="graphics-object" aria-roledescription="symbol mark container"><path aria-label="Row Count: 10; Mean Latency (ms): 1.167; Method: Query - PostgreSQL jsonb (No GIN); Mean (ms): 1.167; Median (ms): 1.169; StdDev (ms): 0.0647; Error (ms): 1.181; Min (ms): 1.101; Max (ms): 1.230; Allocated (KB): 3.70" role="graphics-symbol" aria-roledescription="point" transform="translate(0,412.4593846153846)" d="M4.472,0A4.472,4.472,0,1,1,-4.472,0A4.472,4.472,0,1,1,4.472,0" fill="#e45756" stroke-width="2" opacity="1"/><path aria-label="Row Count: 10; Mean Latency (ms): 1.177; Method: Query - PostgreSQL jsonb (GIN); Mean (ms): 1.177; Median (ms): 1.189; StdDev (ms): 0.1202; Error (ms): 2.193; Min (ms): 1.051; Max (ms): 1.291; Allocated (KB): 3.51" role="graphics-symbol" aria-roledescription="point" transform="translate(0,412.39476923076927)" d="M4.472,0A4.472,4.472,0,1,1,-4.472,0A4.472,4.472,0,1,1,4.472,0" fill="#f58518" stroke-width="2" opacity="1"/><path aria-label="Row Count: 10; Mean Latency (ms): 2.119; Method: Query - MySQL JSON; Mean (ms): 2.119; Median (ms): 2.109; StdDev (ms): 0.2412; Error (ms): 4.400; Min (ms): 1.883; Max (ms): 2.365; Allocated (KB): 5.45" role="graphics-symbol" aria-roledescription="point" transform="translate(0,406.308)" d="M4.472,0A4.472,4.472,0,1,1,-4.472,0A4.472,4.472,0,1,1,4.472,0" fill="#4c78a8" stroke-width="2" opacity="1"/><path aria-label="Row Count: 1,000; Mean Latency (ms): 1.63; Method: Query - PostgreSQL jsonb (No GIN); Mean (ms): 1.630; Median (ms): 1.693; StdDev (ms): 0.1769; Error (ms): 3.227; Min (ms): 1.430; Max (ms): 1.766; Allocated (KB): 3.13" role="graphics-symbol" aria-roledescription="point" transform="translate(359.99999999999994,409.4676923076923)" d="M4.472,0A4.472,4.472,0,1,1,-4.472,0A4.472,4.472,0,1,1,4.472,0" fill="#e45756" stroke-width="2" opacity="1"/><path aria-label="Row Count: 1,000; Mean Latency (ms): 1.878; Method: Query - PostgreSQL jsonb (GIN); Mean (ms): 1.878; Median (ms): 1.907; StdDev (ms): 0.1715; Error (ms): 3.128; Min (ms): 1.694; Max (ms): 2.034; Allocated (KB): 2.82" role="graphics-symbol" aria-roledescription="point" transform="translate(359.99999999999994,407.8652307692308)" d="M4.472,0A4.472,4.472,0,1,1,-4.472,0A4.472,4.472,0,1,1,4.472,0" fill="#f58518" stroke-width="2" opacity="1"/><path aria-label="Row Count: 1,000; Mean Latency (ms): 2.556; Method: Query - MySQL JSON; Mean (ms): 2.556; Median (ms): 2.556; StdDev (ms): 0.0690; Error (ms): 1.259; Min (ms): 2.487; Max (ms): 2.625; Allocated (KB): 6.38" role="graphics-symbol" aria-roledescription="point" transform="translate(359.99999999999994,403.4843076923077)" d="M4.472,0A4.472,4.472,0,1,1,-4.472,0A4.472,4.472,0,1,1,4.472,0" fill="#4c78a8" stroke-width="2" opacity="1"/><path aria-label="Row Count: 10,000; Mean Latency (ms): 4.742; Method: Query - PostgreSQL jsonb (No GIN); Mean (ms): 4.742; Median (ms): 4.527; StdDev (ms): 0.3756; Error (ms): 6.853; Min (ms): 4.523; Max (ms): 5.176; Allocated (KB): 3.13" role="graphics-symbol" aria-roledescription="point" transform="translate(540,389.3593846153846)" d="M4.472,0A4.472,4.472,0,1,1,-4.472,0A4.472,4.472,0,1,1,4.472,0" fill="#e45756" stroke-width="2" opacity="1"/><path aria-label="Row Count: 10,000; Mean Latency (ms): 4.883; Method: Query - PostgreSQL jsonb (GIN); Mean (ms): 4.883; Median (ms): 4.695; StdDev (ms): 0.3924; Error (ms): 7.160; Min (ms): 4.619; Max (ms): 5.334; Allocated (KB): 2.95" role="graphics-symbol" aria-roledescription="point" transform="translate(540,388.44830769230765)" d="M4.472,0A4.472,4.472,0,1,1,-4.472,0A4.472,4.472,0,1,1,4.472,0" fill="#f58518" stroke-width="2" opacity="1"/><path aria-label="Row Count: 10,000; Mean Latency (ms): 7.827; Method: Query - MySQL JSON; Mean (ms): 7.827; Median (ms): 7.773; StdDev (ms): 0.6710; Error (ms): 12.241; Min (ms): 7.184; Max (ms): 8.523; Allocated (KB): 6.38" role="graphics-symbol" aria-roledescription="point" transform="translate(540,369.42553846153845)" d="M4.472,0A4.472,4.472,0,1,1,-4.472,0A4.472,4.472,0,1,1,4.472,0" fill="#4c78a8" stroke-width="2" opacity="1"/><path aria-label="Row Count: 100,000; Mean Latency (ms): 36.106; Method: Query - PostgreSQL jsonb (GIN); Mean (ms): 36.106; Median (ms): 35.656; StdDev (ms): 2.4538; Error (ms): 44.767; Min (ms): 33.909; Max (ms): 38.754; Allocated (KB): 3.47" role="graphics-symbol" aria-roledescription="point" transform="translate(720,186.6996923076923)" d="M4.472,0A4.472,4.472,0,1,1,-4.472,0A4.472,4.472,0,1,1,4.472,0" fill="#f58518" stroke-width="2" opacity="1"/><path aria-label="Row Count: 100,000; Mean Latency (ms): 37.393; Method: Query - PostgreSQL jsonb (No GIN); Mean (ms): 37.393; Median (ms): 39.116; StdDev (ms): 3.1665; Error (ms): 57.768; Min (ms): 33.738; Max (ms): 39.324; Allocated (KB): 3.60" role="graphics-symbol" aria-roledescription="point" transform="translate(720,178.3836923076923)" d="M4.472,0A4.472,4.472,0,1,1,-4.472,0A4.472,4.472,0,1,1,4.472,0" fill="#e45756" stroke-width="2" opacity="1"/><path aria-label="Row Count: 100,000; Mean Latency (ms): 61.964; Method: Query - MySQL JSON; Mean (ms): 61.964; Median (ms): 52.211; StdDev (ms): 17.3601; Error (ms): 316.713; Min (ms): 51.674; Max (ms): 82.007; Allocated (KB): 6.38" role="graphics-symbol" aria-roledescription="point" transform="translate(720,19.617230769230783)" d="M4.472,0A4.472,4.472,0,1,1,-4.472,0A4.472,4.472,0,1,1,4.472,0" fill="#4c78a8" stroke-width="2" opacity="1"/></g><g class="mark-group role-legend" role="graphics-symbol" aria-roledescription="legend" aria-label="Symbol legend titled 'Method' for fill color and stroke color with 3 values: Query - MySQL JSON, Query - PostgreSQL jsonb (GIN), Query - PostgreSQL jsonb (No GIN)"><g transform="translate(0,473)"><path class="background" aria-hidden="true" d="M0,0h471v29h-471Z" pointer-events="none"/><g><g class="mark-group role-legend-entry"><g transform="translate(0,16)"><path class="background" aria-hidden="true" d="M0,0h0v0h0Z" pointer-events="none"/><g><g class="mark-group role-scope" role="graphics-object" aria-roledescription="group mark container"><g transform="translate(0,0.25)"><path class="background" aria-hidden="true" d="M0,0h112.66825866699219v12.5h-112.66825866699219Z" pointer-events="none" opacity="1"/><g><g class="mark-symbol role-legend-symbol" pointer-events="none"><path transform="translate(6,6)" d="M5,0A5,5,0,1,1,-5,0A5,5,0,1,1,5,0" fill="#4c78a8" stroke="#4c78a8" stroke-width="1.5" opacity="1"/></g><g class="mark-text role-legend-label" pointer-events="none"><text text-anchor="start" transform="translate(16,9)" font-family="sans-serif" font-size="10px" fill="#000" opacity="1">Query - MySQL JSON</text></g></g><path class="foreground" aria-hidden="true" d="" pointer-events="none" display="none"/></g><g transform="translate(124,0.25)"><path class="background" aria-hidden="true" d="M0,0h159.96095275878906v12.5h-159.96095275878906Z" pointer-events="none" opacity="1"/><g><g class="mark-symbol role-legend-symbol" pointer-events="none"><path transform="translate(6,6)" d="M5,0A5,5,0,1,1,-5,0A5,5,0,1,1,5,0" fill="#f58518" stroke="#f58518" stroke-width="1.5" opacity="1"/></g><g class="mark-text role-legend-label" pointer-events="none"><text text-anchor="start" transform="translate(16,9)" font-family="sans-serif" font-size="10px" fill="#000" opacity="1">Query - PostgreSQL jsonb (GIN)</text></g></g><path class="foreground" aria-hidden="true" d="" pointer-events="none" display="none"/></g><g transform="translate(295,0.25)"><path class="background" aria-hidden="true" d="M0,0h175.49093627929688v12.5h-175.49093627929688Z" pointer-events="none" opacity="1"/><g><g class="mark-symbol role-legend-symbol" pointer-events="none"><path transform="translate(6,6)" d="M5,0A5,5,0,1,1,-5,0A5,5,0,1,1,5,0" fill="#e45756" stroke="#e45756" stroke-width="1.5" opacity="1"/></g><g class="mark-text role-legend-label" pointer-events="none"><text text-anchor="start" transform="translate(16,9)" font-family="sans-serif" font-size="10px" fill="#000" opacity="1">Query - PostgreSQL jsonb (No GIN)</text></g></g><path class="foreground" aria-hidden="true" d="" pointer-events="none" display="none"/></g></g></g><path class="foreground" aria-hidden="true" d="" pointer-events="none" display="none"/></g></g><g class="mark-text role-legend-title" pointer-events="none"><text text-anchor="start" transform="translate(0,9)" font-family="sans-serif" font-size="11px" font-weight="bold" fill="#000" opacity="1">Method</text></g></g><path class="foreground" aria-hidden="true" d="" pointer-events="none" display="none"/></g></g><g class="mark-group role-title"><g transform="translate(-37.319976806640625,-26)"><path class="background" aria-hidden="true" d="M0,0h0v0h0Z" pointer-events="none"/><g><g class="mark-text role-title-text" role="graphics-symbol" aria-roledescription="title" aria-label="Title text 'Query Benchmark: Mean Latency by Row Count'" pointer-events="none"><text text-anchor="start" transform="translate(0,13)" font-family="sans-serif" font-size="16px" font-weight="bold" fill="#000" opacity="1">Query Benchmark: Mean Latency by Row Count</text></g></g><path class="foreground" aria-hidden="true" d="" pointer-events="none" display="none"/></g></g></g><path class="foreground" aria-hidden="true" d="" display="none"/></g></g></g></svg>