<svg xmlns="http://www.w3.org/2000/svg" xmlns:xlink="http://www.w3.org/1999/xlink" version="1.1" class="marks" width="1578" height="1076" viewBox="0 0 789 538"><rect width="789" height="538" fill="white"/><g fill="none" stroke-miterlimit="10" transform="translate(59,31)"><g class="mark-group role-frame root" role="graphics-object" aria-roledescription="group mark container"><g transform="translate(0,0)"><path class="background" aria-hidden="true" d="M0.5,0.5h720v420h-720Z" stroke="#ddd"/><g><g class="mark-group role-axis" aria-hidden="true"><g transform="translate(0.5,420.5)"><path class="background" aria-hidden="true" d="M0,0h0v0h0Z" pointer-events="none"/><g><g class="mark-rule role-axis-grid" pointer-events="none"><line transform="translate(0,-420)" x2="0" y2="420" stroke="#ddd" stroke-width="1" opacity="1"/><line transform="translate(54,-420)" x2="0" y2="420" stroke="#ddd" stroke-width="1" opacity="1"/><line transform="translate(86,-420)" x2="0" y2="420" stroke="#ddd" stroke-width="1" opacity="1"/><line transform="translate(108,-420)" x2="0" y2="420" stroke="#ddd" stroke-width="1" opacity="1"/><line transform="translate(126,-420)" x2="0" y2="420" stroke="#ddd" stroke-width="1" opacity="1"/><line transform="translate(140,-420)" x2="0" y2="420" stroke="#ddd" stroke-width="1" opacity="1"/><line transform="translate(152,-420)" x2="0" y2="420" stroke="#ddd" stroke-width="1" opacity="1"/><line transform="translate(163,-420)" x2="0" y2="420" stroke="#ddd" stroke-width="1" opacity="1"/><line transform="translate(172,-420)" x2="0" y2="420" stroke="#ddd" stroke-width="1" opacity="1"/><line transform="translate(180,-420)" x2="0" y2="420" stroke="#ddd" stroke-width="1" opacity="1"/><line transform="translate(234,-420)" x2="0" y2="420" stroke="#ddd" stroke-width="1" opacity="1"/><line transform="translate(266,-420)" x2="0" y2="420" stroke="#ddd" stroke-width="1" opacity="1"/><line transform="translate(288,-420)" x2="0" y2="420" stroke="#ddd" stroke-width="1" opacity="1"/><line transform="translate(306,-420)" x2="0" y2="420" stroke="#ddd" stroke-width="1" opacity="1"/><line transform="translate(320,-420)" x2="0" y2="420" stroke="#ddd" stroke-width="1" opacity="1"/><line transform="translate(332,-420)" x2="0" y2="420" stroke="#ddd" stroke-width="1" opacity="1"/><line transform="translate(343,-420)" x2="0" y2="420" stroke="#ddd" stroke-width="1" opacity="1"/><line transform="translate(352,-420)" x2="0" y2="420" stroke="#ddd" stroke-width="1" opacity="1"/><line transform="translate(360,-420)" x2="0" y2="420" stroke="#ddd" stroke-width="1" opacity="1"/><line transform="translate(414,-420)" x2="0" y2="420" stroke="#ddd" stroke-width="1" opacity="1"/><line transform="translate(446,-420)" x2="0" y2="420" stroke="#ddd" stroke-width="1" opacity="1"/><line transform="translate(468,-420)" x2="0" y2="420" stroke="#ddd" stroke-width="1" opacity="1"/><line transform="translate(486,-420)" x2="0" y2="420" stroke="#ddd" stroke-width="1" opacity="1"/><line transform="translate(500,-420)" x2="0" y2="420" stroke="#ddd" stroke-width="1" opacity="1"/><line transform="translate(512,-420)" x2="0" y2="420" stroke="#ddd" stroke-width="1" opacity="1"/><line transform="translate(523,-420)" x2="0" y2="420" stroke="#ddd" stroke-width="1" opacity="1"/><line transform="translate(532,-420)" x2="0" y2="420" stroke="#ddd" stroke-width="1" opacity="1"/><line transform="translate(540,-420)" x2="0" y2="420" stroke="#ddd" stroke-width="1" opacity="1"/><line transform="translate(594,-420)" x2="0" y2="420" stroke="#ddd" stroke-width="1" opacity="1"/><line transform="translate(626,-420)" x2="0" y2="420" stroke="#ddd" stroke-width="1" opacity="1"/><line transform="translate(648,-420)" x2="0" y2="420" stroke="#ddd" stroke-width="1" opacity="1"/><line transform="translate(666,-420)" x2="0" y2="420" stroke="#ddd" stroke-width="1" opacity="1"/><line transform="translate(680,-420)" x2="0" y2="420" stroke="#ddd" stroke-width="1" opacity="1"/><line transform="translate(692,-420)" x2="0" y2="420" stroke="#ddd" stroke-width="1" opacity="1"/><line transform="translate(703,-420)" x2="0" y2="420" stroke="#ddd" stroke-width="1" opacity="1"/><line transform="translate(712,-420)" x2="0" y2="420" stroke="#ddd" stroke-width="1" opacity="1"/><line transform="translate(720,-420)" x2="0" y2="420" stroke="#ddd" stroke-width="1" opacity="1"/></g></g><path class="foreground" aria-hidden="true" d="" pointer-events="none" display="none"/></g></g><g class="mark-group role-axis" aria-hidden="true"><g transform="translate(0.5,0.5)"><path class="background" aria-hidden="true" d="M0,0h0v0h0Z" pointer-events="none"/><g><g class="mark-rule role-axis-grid" pointer-events="none"><line transform="translate(0,420)" x2="720" y2="0" stroke="#ddd" stroke-width="1" opacity="1"/><line transform="translate(0,390)" x2="720" y2="0" stroke="#ddd" stroke-width="1" opacity="1"/><line transform="translate(0,360)" x2="720" y2="0" stroke="#ddd" stroke-width="1" opacity="1"/><line transform="translate(0,330)" x2="720" y2="0" stroke="#ddd" stroke-width="1" opacity="1"/><line transform="translate(0,300)" x2="720" y2="0" stroke="#ddd" stroke-width="1" opacity="1"/><line transform="translate(0,270)" x2="720" y2="0" stroke="#ddd" stroke-width="1" opacity="1"/><line transform="translate(0,240)" x2="720" y2="0" stroke="#ddd" stroke-width="1" opacity="1"/><line transform="translate(0,210)" x2="720" y2="0" stroke="#ddd" stroke-width="1" opacity="1"/><line transform="translate(0,180)" x2="720" y2="0" stroke="#ddd" stroke-width="1" opacity="1"/><line transform="translate(0,150)" x2="720" y2="0" stroke="#ddd" stroke-width="1" opacity="1"/><line transform="translate(0,120)" x2="720" y2="0" stroke="#ddd" stroke-width="1" opacity="1"/><line transform="translate(0,90)" x2="720" y2="0" stroke="#ddd" stroke-width="1" opacity="1"/><line transform="translate(0,60)" x2="720" y2="0" stroke="#ddd" stroke-width="1" opacity="1"/><line transform="translate(0,30)" x2="720" y2="0" stroke="#ddd" stroke-width="1" opacity="1"/><line transform="translate(0,0)" x2="720" y2="0" stroke="#ddd" stroke-width="1" opacity="1"/></g></g><path class="foreground" aria-hidden="true" d="" pointer-events="none" display="none"/></g></g><g class="mark-group role-axis" role="graphics-symbol" aria-roledescription="axis" aria-label="X-axis titled 'Row Count' for a log scale with values from 10 to 100,000"><g transform="translate(0.5,420.5)"><path class="background" aria-hidden="true" d="M0,0h0v0h0Z" pointer-events="none"/><g><g class="mark-rule role-axis-tick" pointer-events="none"><line transform="translate(0,0)" x2="0" y2="5" stroke="#888" stroke-width="1" opacity="1"/><line transform="translate(54,0)" x2="0" y2="5" stroke="#888" stroke-width="1" opacity="1"/><line transform="translate(86,0)" x2="0" y2="5" stroke="#888" stroke-width="1" opacity="1"/><line transform="translate(108,0)" x2="0" y2="5" stroke="#888" stroke-width="1" opacity="1"/><line transform="translate(126,0)" x2="0" y2="5" stroke="#888" stroke-width="1" opacity="1"/><line transform="translate(140,0)" x2="0" y2="5" stroke="#888" stroke-width="1" opacity="1"/><line transform="translate(152,0)" x2="0" y2="5" stroke="#888" stroke-width="1" opacity="1"/><line transform="translate(163,0)" x2="0" y2="5" stroke="#888" stroke-width="1" opacity="1"/><line transform="translate(172,0)" x2="0" y2="5" stroke="#888" stroke-width="1" opacity="1"/><line transform="translate(180,0)" x2="0" y2="5" stroke="#888" stroke-width="1" opacity="1"/><line transform="translate(234,0)" x2="0" y2="5" stroke="#888" stroke-width="1" opacity="1"/><line transform="translate(266,0)" x2="0" y2="5" stroke="#888" stroke-width="1" opacity="1"/><line transform="translate(288,0)" x2="0" y2="5" stroke="#888" stroke-width="1" opacity="1"/><line transform="translate(306,0)" x2="0" y2="5" stroke="#888" stroke-width="1" opacity="1"/><line transform="translate(320,0)" x2="0" y2="5" stroke="#888" stroke-width="1" opacity="1"/><line transform="translate(332,0)" x2="0" y2="5" stroke="#888" stroke-width="1" opacity="1"/><line transform="translate(343,0)" x2="0" y2="5" stroke="#888" stroke-width="1" opacity="1"/><line transform="translate(352,0)" x2="0" y2="5" stroke="#888" stroke-width="1" opacity="1"/><line transform="translate(360,0)" x2="0" y2="5" stroke="#888" stroke-width="1" opacity="1"/><line transform="translate(414,0)" x2="0" y2="5" stroke="#888" stroke-width="1" opacity="1"/><line transform="translate(446,0)" x2="0" y2="5" stroke="#888" stroke-width="1" opacity="1"/><line transform="translate(468,0)" x2="0" y2="5" stroke="#888" stroke-width="1" opacity="1"/><line transform="translate(486,0)" x2="0" y2="5" stroke="#888" stroke-width="1" opacity="1"/><line transform="translate(500,0)" x2="0" y2="5" stroke="#888" stroke-width="1" opacity="1"/><line transform="translate(512,0)" x2="0" y2="5" stroke="#888" stroke-width="1" opacity="1"/><line transform="translate(523,0)" x2="0" y2="5" stroke="#888" stroke-width="1" opacity="1"/><line transform="translate(532,0)" x2="0" y2="5" stroke="#888" stroke-width="1" opacity="1"/><line transform="translate(540,0)" x2="0" y2="5" stroke="#888" stroke-width="1" opacity="1"/><line transform="translate(594,0)" x2="0" y2="5" stroke="#888" stroke-width="1" opacity="1"/><line transform="translate(626,0)" x2="0" y2="5" stroke="#888" stroke-width="1" opacity="1"/><line transform="translate(648,0)" x2="0" y2="5" stroke="#888" stroke-width="1" opacity="1"/><line transform="translate(666,0)" x2="0" y2="5" stroke="#888" stroke-width="1" opacity="1"/><line transform="translate(680,0)" x2="0" y2="5" stroke="#888" stroke-width="1" opacity="1"/><line transform="translate(692,0)" x2="0" y2="5" stroke="#888" stroke-width="1" opacity="1"/><line transform="translate(703,0)" x2="0" y2="5" stroke="#888" stroke-width="1" opacity="1"/><line transform="translate(712,0)" x2="0" y2="5" stroke="#888" stroke-width="1" opacity="1"/><line transform="translate(720,0)" x2="0" y2="5" stroke="#888" stroke-width="1" opacity="1"/></g><g class="mark-text role-axis-label" pointer-events="none"><text text-anchor="start" transform="translate(0,16)" font-family="sans-serif" font-size="12px" fill="#000" opacity="1">10</text><text text-anchor="middle" transform="translate(54.18539921951658,16)" font-family="sans-serif" font-size="12px" fill="#000" opacity="1">20</text><text text-anchor="middle" transform="translate(85.88182584953921,16)" font-family="sans-serif" font-size="12px" fill="#000" opacity="1"/><text text-anchor="middle" transform="translate(108.3707984390332,16)" font-family="sans-serif" font-size="12px" fill="#000" opacity="1"/><text text-anchor="middle" transform="translate(125.81460078048336,16)" font-family="sans-serif" font-size="12px" fill="#000" opacity="1"/><text text-anchor="middle" transform="translate(140.06722506905578,16)" font-family="sans-serif" font-size="12px" fill="#000" opacity="1"/><text text-anchor="middle" transform="translate(152.11764720256622,16)" font-family="sans-serif" font-size="12px" fill="#000" opacity="1"/><text text-anchor="middle" transform="translate(162.55619765854976,16)" font-family="sans-serif" font-size="12px" fill="#000" opacity="1"/><text text-anchor="middle" transform="translate(171.76365169907842,16)" font-family="sans-serif" font-size="12px" fill="#000" opacity="1"/><text text-anchor="middle" transform="translate(180,16)" font-family="sans-serif" font-size="12px" fill="#000" opacity="1">100</text><text text-anchor="middle" transform="translate(234.18539921951654,16)" font-family="sans-serif" font-size="12px" fill="#000" opacity="1">200</text><text text-anchor="middle" transform="translate(265.8818258495392,16)" font-family="sans-serif" font-size="12px" fill="#000" opacity="1"/><text text-anchor="middle" transform="translate(288.3707984390332,16)" font-family="sans-serif" font-size="12px" fill="#000" opacity="1"/><text text-anchor="middle" transform="translate(305.8146007804833,16)" font-family="sans-serif" font-size="12px" fill="#000" opacity="1"/><text text-anchor="middle" transform="translate(320.06722506905584,16)" font-family="sans-serif" font-size="12px" fill="#000" opacity="1"/><text text-anchor="middle" transform="translate(332.11764720256616,16)" font-family="sans-serif" font-size="12px" fill="#000" opacity="1"/><text text-anchor="middle" transform="translate(342.5561976585498,16)" font-family="sans-serif" font-size="12px" fill="#000" opacity="1"/><text text-anchor="middle" transform="translate(351.7636516990785,16)" font-family="sans-serif" font-size="12px" fill="#000" opacity="1"/><text text-anchor="middle" transform="translate(359.99999999999994,16)" font-family="sans-serif" font-size="12px" fill="#000" opacity="1">1,000</text><text text-anchor="middle" transform="translate(414.18539921951657,16)" font-family="sans-serif" font-size="12px" fill="#000" opacity="1">2,000</text><text text-anchor="middle" transform="translate(445.8818258495391,16)" font-family="sans-serif" font-size="12px" fill="#000" opacity="1"/><text text-anchor="middle" transform="translate(468.3707984390332,16)" font-family="sans-serif" font-size="12px" fill="#000" opacity="1"/><text text-anchor="middle" transform="translate(485.8146007804834,16)" font-family="sans-serif" font-size="12px" fill="#000" opacity="1"/><text text-anchor="middle" transform="translate(500.0672250690557,16)" font-family="sans-serif" font-size="12px" fill="#000" opacity="1"/><text text-anchor="middle" transform="translate(512.1176472025662,16)" font-family="sans-serif" font-size="12px" fill="#000" opacity="1"/><text text-anchor="middle" transform="translate(522.5561976585498,16)" font-family="sans-serif" font-size="12px" fill="#000" opacity="1"/><text text-anchor="middle" transform="translate(531.7636516990784,16)" font-family="sans-serif" font-size="12px" fill="#000" opacity="1"/><text text-anchor="middle" transform="translate(540,16)" font-family="sans-serif" font-size="12px" fill="#000" opacity="1">10,000</text><text text-anchor="middle" transform="translate(594.1853992195165,16)" font-family="sans-serif" font-size="12px" fill="#000" opacity="1">20,000</text><text text-anchor="middle" transform="translate(625.8818258495393,16)" font-family="sans-serif" font-size="12px" fill="#000" opacity="1"/><text text-anchor="middle" transform="translate(648.3707984390331,16)" font-family="sans-serif" font-size="12px" fill="#000" opacity="1"/><text text-anchor="middle" transform="translate(665.8146007804833,16)" font-family="sans-serif" font-size="12px" fill="#000" opacity="1"/><text text-anchor="middle" transform="translate(680.0672250690558,16)" font-family="sans-serif" font-size="12px" fill="#000" opacity="1"/><text text-anchor="middle" transform="translate(692.117647202566,16)" font-family="sans-serif" font-size="12px" fill="#000" opacity="1"/><text text-anchor="middle" transform="translate(702.5561976585496,16)" font-family="sans-serif" font-size="12px" fill="#000" opacity="1"/><text text-anchor="middle" transform="translate(711.7636516990783,16)" font-family="sans-serif" font-size="12px" fill="#000" opacity="1"/><text text-anchor="end" transform="translate(720,16)" font-family="sans-serif" font-size="12px" fill="#000" opacity="1">100,000</text></g><g class="mark-rule role-axis-domain" pointer-events="none"><line transform="translate(0,0)" x2="720" y2="0" stroke="#888" stroke-width="1" opacity="1"/></g><g class="mark-text role-axis-title" pointer-events="none"><text text-anchor="middle" transform="translate(360,32)" font-family="sans-serif" font-size="13px" font-weight="bold" fill="#000" opacity="1">Row Count</text></g></g><path class="foreground" aria-hidden="true" d="" pointer-events="none" display="none"/></g></g><g class="mark-group role-axis" role="graphics-symbol" aria-roledescription="axis" aria-label="Y-axis titled 'Mean Latency (ms)' for a linear scale with values from 0 to 1,400"><g transform="translate(0.5,0.5)"><path class="background" aria-hidden="true" d="M0,0h0v0h0Z" pointer-events="none"/><g><g class="mark-rule role-axis-tick" pointer-events="none"><line transform="translate(0,420)" x2="-5" y2="0" stroke="#888" stroke-width="1" opacity="1"/><line transform="translate(0,390)" x2="-5" y2="0" stroke="#888" stroke-width="1" opacity="1"/><line transform="translate(0,360)" x2="-5" y2="0" stroke="#888" stroke-width="1" opacity="1"/><line transform="translate(0,330)" x2="-5" y2="0" stroke="#888" stroke-width="1" opacity="1"/><line transform="translate(0,300)" x2="-5" y2="0" stroke="#888" stroke-width="1" opacity="1"/><line transform="translate(0,270)" x2="-5" y2="0" stroke="#888" stroke-width="1" opacity="1"/><line transform="translate(0,240)" x2="-5" y2="0" stroke="#888" stroke-width="1" opacity="1"/><line transform="translate(0,210)" x2="-5" y2="0" stroke="#888" stroke-width="1" opacity="1"/><line transform="translate(0,180)" x2="-5" y2="0" stroke="#888" stroke-width="1" opacity="1"/><line transform="translate(0,150)" x2="-5" y2="0" stroke="#888" stroke-width="1" opacity="1"/><line transform="translate(0,120)" x2="-5" y2="0" stroke="#888" stroke-width="1" opacity="1"/><line transform="translate(0,90)" x2="-5" y2="0" stroke="#888" stroke-width="1" opacity="1"/><line transform="translate(0,60)" x2="-5" y2="0" stroke="#888" stroke-width="1" opacity="1"/><line transform="translate(0,30)" x2="-5" y2="0" stroke="#888" stroke-width="1" opacity="1"/><line transform="translate(0,0)" x2="-5" y2="0" stroke="#888" stroke-width="1" opacity="1"/></g><g class="mark-text role-axis-label" pointer-events="none"><text text-anchor="end" transform="translate(-7,424)" font-family="sans-serif" font-size="12px" fill="#000" opacity="1">0</text><text text-anchor="end" transform="translate(-7,394)" font-family="sans-serif" font-size="12px" fill="#000" opacity="1">100</text><text text-anchor="end" transform="translate(-7,364)" font-family="sans-serif" font-size="12px" fill="#000" opacity="1">200</text><text text-anchor="end" transform="translate(-7,334)" font-family="sans-serif" font-size="12px" fill="#000" opacity="1">300</text><text text-anchor="end" transform="translate(-7,304)" font-family="sans-serif" font-size="12px" fill="#000" opacity="1">400</text><text text-anchor="end" transform="translate(-7,274)" font-family="sans-serif" font-size="12px" fill="#000" opacity="1">500</text><text text-anchor="end" transform="translate(-7,244)" font-family="sans-serif" font-size="12px" fill="#000" opacity="1">600</text><text text-anchor="end" transform="translate(-7,214)" font-family="sans-serif" font-size="12px" fill="#000" opacity="1">700</text><text text-anchor="end" transform="translate(-7,184)" font-family="sans-serif" font-size="12px" fill="#000" opacity="1">800</text><text text-anchor="end" transform="translate(-7,153.99999999999997)" font-family="sans-serif" font-size="12px" fill="#000" opacity="1">900</text><text text-anchor="end" transform="translate(-7,124)" font-family="sans-serif" font-size="12px" fill="#000" opacity="1">1,000</text><text text-anchor="end" transform="translate(-7,94)" font-family="sans-serif" font-size="12px" fill="#000" opacity="1">1,100</text><text text-anchor="end" transform="translate(-7,64.00000000000003)" font-family="sans-serif" font-size="12px" fill="#000" opacity="1">1,200</text><text text-anchor="end" transform="translate(-7,33.999999999999986)" font-family="sans-serif" font-size="12px" fill="#000" opacity="1">1,300</text><text text-anchor="end" transform="translate(-7,4)" font-family="sans-serif" font-size="12px" fill="#000" opacity="1">1,400</text></g><g class="mark-rule role-axis-domain" pointer-events="none"><line transform="translate(0,420)" x2="0" y2="-420" stroke="#888" stroke-width="1" opacity="1"/></g><g class="mark-text role-axis-title" pointer-events="none"><text text-anchor="middle" transform="translate(-40.987945556640625,210) rotate(-90) translate(0,-3)" font-family="sans-serif" font-size="13px" font-weight="bold" fill="#000" opacity="1">Mean Latency (ms)</text></g></g><path class="foreground" aria-hidden="true" d="" pointer-events="none" display="none"/></g></g><g class="mark-group role-scope layer_0_pathgroup" role="graphics-object" aria-roledescription="group mark container"><g transform="translate(0,0)"><path class="background" aria-hidden="true" d="M0,0h720v420h-720Z"/><g><g class="mark-line role-mark layer_0_marks" role="graphics-object" aria-roledescription="line mark container"><path aria-label="Row Count: 10; Mean Latency (ms): 2.49; Method: Update - PostgreSQL jsonb (No GIN); Mean (ms): 2.490; Median (ms): 2.502; StdDev (ms): 0.3069; Error (ms): 5.599; Min (ms): 2.178; Max (ms): 2.791; Allocated (KB): 4.20" role="graphics-symbol" aria-roledescription="line mark" d="M0,419.253L360,417.373L540,408.033L720,258.47" stroke="#e45756" stroke-width="3"/></g></g><path class="foreground" aria-hidden="true" d="" display="none"/></g><g transform="translate(0,0)"><path class="background" aria-hidden="true" d="M0,0h720v420h-720Z"/><g><g class="mark-line role-mark layer_0_marks" role="graphics-object" aria-roledescription="line mark container"><path aria-label="Row Count: 10; Mean Latency (ms): 2.579; Method: Update - PostgreSQL jsonb (GIN); Mean (ms): 2.579; Median (ms): 2.547; StdDev (ms): 0.2729; Error (ms): 4.978; Min (ms): 2.323; Max (ms): 2.866; Allocated (KB): 4.14" role="graphics-symbol" aria-roledescription="line mark" d="M0,419.226L360,416.977L540,400.64L720,5.385" stroke="#f58518" stroke-width="3"/></g></g><path class="foreground" aria-hidden="true" d="" display="none"/></g><g transform="translate(0,0)"><path class="background" aria-hidden="true" d="M0,0h720v420h-720Z"/><g><g class="mark-line role-mark layer_0_marks" role="graphics-object" aria-roledescription="line mark container"><path aria-label="Row Count: 10; Mean Latency (ms): 6.998; Method: Update - MySQL JSON; Mean (ms): 6.998; Median (ms): 7.162; StdDev (ms): 0.5687; Error (ms): 10.375; Min (ms): 6.365; Max (ms): 7.466; Allocated (KB): 6.19" role="graphics-symbol" aria-roledescription="line mark" d="M0,417.901L360,416.102L540,402.989L720,230.54" stroke="#4c78a8" stroke-width="3"/></g></g><path class="foreground" aria-hidden="true" d="" display="none"/></g></g><g class="mark-symbol role-mark layer_1_marks" role="graphics-object" aria-roledescription="symbol mark container"><path aria-label="Row Count: 10; Mean Latency (ms): 2.49; Method: Update - PostgreSQL jsonb (No GIN); Mean (ms): 2.490; Median (ms): 2.502; StdDev (ms): 0.3069; Error (ms): 5.599; Min (ms): 2.178; Max (ms): 2.791; Allocated (KB): 4.20" role="graphics-symbol" aria-roledescription="point" transform="translate(0,419.253)" d="M4.472,0A4.472,4.472,0,1,1,-4.472,0A4.472,4.472,0,1,1,4.472,0" fill="#e45756" stroke-width="2" opacity="1"/><path aria-label="Row Count: 10; Mean Latency (ms): 2.579; Method: Update - PostgreSQL jsonb (GIN); Mean (ms): 2.579; Median (ms): 2.547; StdDev (ms): 0.2729; Error (ms): 4.978; Min (ms): 2.323; Max (ms): 2.866; Allocated (KB): 4.14" role="graphics-symbol" aria-roledescription="point" transform="translate(0,419.2263)" d="M4.472,0A4.472,4.472,0,1,1,-4.472,0A4.472,4.472,0,1,1,4.472,0" fill="#f58518" stroke-width="2" opacity="1"/><path aria-label="Row Count: 10; Mean Latency (ms): 6.998; Method: Update - MySQL JSON; Mean (ms): 6.998; Median (ms): 7.162; StdDev (ms): 0.5687; Error (ms): 10.375; Min (ms): 6.365; Max (ms): 7.466; Allocated (KB): 6.19" role="graphics-symbol" aria-roledescription="point" transform="translate(0,417.9006)" d="M4.472,0A4.472,4.472,0,1,1,-4.472,0A4.472,4.472,0,1,1,4.472,0" fill="#4c78a8" stroke-width="2" opacity="1"/><path aria-label="Row Count: 1,000; Mean Latency (ms): 8.758; Method: Update - PostgreSQL jsonb (No GIN); Mean (ms): 8.758; Median (ms): 9.157; StdDev (ms): 1.1282; Error (ms): 20.583; Min (ms): 7.485; Max (ms): 9.633; Allocated (KB): 3.51" role="graphics-symbol" aria-roledescription="point" transform="translate(359.99999999999994,417.37260000000003)" d="M4.472,0A4.472,4.472,0,1,1,-4.472,0A4.472,4.472,0,1,1,4.472,0" fill="#e45756" stroke-width="2" opacity="1"/><path aria-label="Row Count: 1,000; Mean Latency (ms): 10.077; Method: Update - PostgreSQL jsonb (GIN); Mean (ms): 10.077; Median (ms): 10.450; StdDev (ms): 1.3056; Error (ms): 23.819; Min (ms): 8.626; Max (ms): 11.156; Allocated (KB): 3.68" role="graphics-symbol" aria-roledescription="point" transform="translate(359.99999999999994,416.9769)" d="M4.472,0A4.472,4.472,0,1,1,-4.472,0A4.472,4.472,0,1,1,4.472,0" fill="#f58518" stroke-width="2" opacity="1"/><path aria-label="Row Count: 1,000; Mean Latency (ms): 12.995; Method: Update - MySQL JSON; Mean (ms): 12.995; Median (ms): 13.264; StdDev (ms): 0.8475; Error (ms): 15.461; Min (ms): 12.046; Max (ms): 13.675; Allocated (KB): 5.55" role="graphics-symbol" aria-roledescription="point" transform="translate(359.99999999999994,416.1015)" d="M4.472,0A4.472,4.472,0,1,1,-4.472,0A4.472,4.472,0,1,1,4.472,0" fill="#4c78a8" stroke-width="2" opacity="1"/><path aria-label="Row Count: 10,000; Mean Latency (ms): 39.891; Method: Update - PostgreSQL jsonb (No GIN); Mean (ms): 39.891; Median (ms): 39.372; StdDev (ms): 1.2835; Error (ms): 23.417; Min (ms): 38.948; Max (ms): 41.352; Allocated (KB): 3.81" role="graphics-symbol" aria-roledescription="point" transform="translate(540,408.0327)" d="M4.472,0A4.472,4.472,0,1,1,-4.472,0A4.472,4.472,0,1,1,4.472,0" fill="#e45756" stroke-width="2" opacity="1"/><path aria-label="Row Count: 10,000; Mean Latency (ms): 64.534; Method: Update - PostgreSQL jsonb (GIN); Mean (ms): 64.534; Median (ms): 66.715; StdDev (ms): 4.8913; Error (ms): 89.235; Min (ms): 58.932; Max (ms): 67.957; Allocated (KB): 3.80" role="graphics-symbol" aria-roledescription="point" transform="translate(540,400.63980000000004)" d="M4.472,0A4.472,4.472,0,1,1,-4.472,0A4.472,4.472,0,1,1,4.472,0" fill="#f58518" stroke-width="2" opacity="1"/><path aria-label="Row Count: 10,000; Mean Latency (ms): 56.704; Method: Update - MySQL JSON; Mean (ms): 56.704; Median (ms): 46.828; StdDev (ms): 17.8778; Error (ms): 326.157; Min (ms): 45.944; Max (ms): 77.341; Allocated (KB): 5.91" role="graphics-symbol" aria-roledescription="point" transform="translate(540,402.98879999999997)" d="M4.472,0A4.472,4.472,0,1,1,-4.472,0A4.472,4.472,0,1,1,4.472,0" fill="#4c78a8" stroke-width="2" opacity="1"/><path aria-label="Row Count: 100,000; Mean Latency (ms): 538.435; Method: Update - PostgreSQL jsonb (No GIN); Mean (ms): 538.435; Median (ms): 615.209; StdDev (ms): 150.3619; Error (ms): 2743.160; Min (ms): 365.185; Max (ms): 634.910; Allocated (KB): 3.51" role="graphics-symbol" aria-roledescription="point" transform="translate(720,258.46950000000004)" d="M4.472,0A4.472,4.472,0,1,1,-4.472,0A4.472,4.472,0,1,1,4.472,0" fill="#e45756" stroke-width="2" opacity="1"/><path aria-label="Row Count: 100,000; Mean Latency (ms): 1382.05; Method: Update - PostgreSQL jsonb (GIN); Mean (ms): 1382.050; Median (ms): 1465.259; StdDev (ms): 198.6121; Error (ms): 3623.424; Min (ms): 1155.367; Max (ms): 1525.524; Allocated (KB): 3.80" role="graphics-symbol" aria-roledescription="point" transform="translate(720,5.3850000000000335)" d="M4.472,0A4.472,4.472,0,1,1,-4.472,0A4.472,4.472,0,1,1,4.472,0" fill="#f58518" stroke-width="2" opacity="1"/><path aria-label="Row Count: 100,000; Mean Latency (ms): 631.533; Method: Update - MySQL JSON; Mean (ms): 631.533; Median (ms): 487.963; StdDev (ms): 255.2201; Error (ms): 4656.165; Min (ms): 480.432; Max (ms): 926.203; Allocated (KB): 5.91" role="graphics-symbol" aria-roledescription="point" transform="translate(720,230.5401)" d="M4.472,0A4.472,4.472,0,1,1,-4.472,0A4.472,4.472,0,1,1,4.472,0" fill="#4c78a8" stroke-width="2" opacity="1"/></g><g class="mark-group role-legend" role="graphics-symbol" aria-roledescription="legend" aria-label="Symbol legend titled 'Method' for fill color and stroke color with 3 values: Update - MySQL JSON, Update - PostgreSQL jsonb (GIN), Update - PostgreSQL jsonb (No GIN)"><g transform="translate(0,473)"><path class="background" aria-hidden="true" d="M0,0h478v29h-478Z" pointer-events="none"/><g><g class="mark-group role-legend-entry"><g transform="translate(0,16)"><path class="background" aria-hidden="true" d="M0,0h0v0h0Z" pointer-events="none"/><g><g class="mark-group role-scope" role="graphics-object" aria-roledescription="group mark container"><g transform="translate(0,0.25)"><path class="background" aria-hidden="true" d="M0,0h118.47944641113281v12.5h-118.47944641113281Z" pointer-events="none" opacity="1"/><g><g class="mark-symbol role-legend-symbol" pointer-events="none"><path transform="translate(6,6)" d="M5,0A5,5,0,1,1,-5,0A5,5,0,1,1,5,0" fill="#4c78a8" stroke="#4c78a8" stroke-width="1.5" opacity="1"/></g><g class="mark-text role-legend-label" pointer-events="none"><text text-anchor="start" transform="translate(16,9)" font-family="sans-serif" font-size="10px" fill="#000" opacity="1">Update - MySQL JSON</text></g></g><path class="foreground" aria-hidden="true" d="" pointer-events="none" display="none"/></g><g transform="translate(130,0.25)"><path class="background" aria-hidden="true" d="M0,0h165.7721405029297v12.5h-165.7721405029297Z" pointer-events="none" opacity="1"/><g><g class="mark-symbol role-legend-symbol" pointer-events="none"><path transform="translate(6,6)" d="M5,0A5,5,0,1,1,-5,0A5,5,0,1,1,5,0" fill="#f58518" stroke="#f58518" stroke-width="1.5" opacity="1"/></g><g class="mark-text role-legend-label" pointer-events="none"><text text-anchor="start" transform="translate(16,9)" font-family="sans-serif" font-size="10px" fill="#000" opacity="1">Update - PostgreSQL jsonb (GIN)</text></g></g><path class="foreground" aria-hidden="true" d="" pointer-events="none" display="none"/></g><g transform="translate(307,0.25)"><path class="background" aria-hidden="true" d="M0,0h170.8721466064453v12.5h-170.8721466064453Z" pointer-events="none" opacity="1"/><g><g class="mark-symbol role-legend-symbol" pointer-events="none"><path transform="translate(6,6)" d="M5,0A5,5,0,1,1,-5,0A5,5,0,1,1,5,0" fill="#e45756" stroke="#e45756" stroke-width="1.5" opacity="1"/></g><g class="mark-text role-legend-label" pointer-events="none"><text text-anchor="start" transform="translate(16,9)" font-family="sans-serif" font-size="10px" fill="#000" opacity="1">Update - PostgreSQL jsonb (No …</text></g></g><path class="foreground" aria-hidden="true" d="" pointer-events="none" display="none"/></g></g></g><path class="foreground" aria-hidden="true" d="" pointer-events="none" display="none"/></g></g><g class="mark-text role-legend-title" pointer-events="none"><text text-anchor="start" transform="translate(0,9)" font-family="sans-serif" font-size="11px" font-weight="bold" fill="#000" opacity="1">Method</text></g></g><path class="foreground" aria-hidden="true" d="" pointer-events="none" display="none"/></g></g><g class="mark-group role-title"><g transform="translate(-53.987945556640625,-26)"><path class="background" aria-hidden="true" d="M0,0h0v0h0Z" pointer-events="none"/><g><g class="mark-text role-title-text" role="graphics-symbol" aria-roledescription="title" aria-label="Title text 'Update Benchmark: Mean Latency by Row Count'" pointer-events="none"><text text-anchor="start" transform="translate(0,13)" font-family="sans-serif" font-size="16px" font-weight="bold" fill="#000" opacity="1">Update Benchmark: Mean Latency by Row Count</text></g></g><path class="foreground" aria-hidden="true" d="" pointer-events="none" display="none"/></g></g></g><path class="foreground" aria-hidden="true" d="" display="none"/></g></g></g></svg>