<svg xmlns="http://www.w3.org/2000/svg" viewBox="-2 -56.84 526 65.68" width="526" height="65.68">
  <path d="M0 4.92L0.06-10.80L24.66-24.12L0.06-39L0.12-54.84L41.64-27.96L41.64-18.96L0 4.92ZM62.88-2.16L62.88 6.84L26.82 6.84L26.82-2.16L62.88-2.16ZM126.00 0L96.00 0L96.00-6.00L102.00-6.00L102.00-48.00L96.00-48.00L96.00-54.00L126.00-54.00L126.00-48.00L132-48.00L132-42L138-42L138-12.00L132-12.00L132-6.00L126.00-6.00L126.00 0ZM114.00-48.00L114.00-6.00L120.00-6.00L120.00-12.00L126.00-12.00L126.00-42L120.00-42L120.00-48.00L114.00-48.00ZM156.00 0L144.00 0L144.00-36L150.00-36L150.00-42L156.00-42L156.00-48.00L162.00-48.00L162.00-54.00L168.00-54.00L168.00-48.00L174.00-48.00L174.00-42L180.00-42L180.00-36L186.00-36L186.00 0L174.00 0L174.00-18L156.00-18L156.00 0ZM156.00-36L156.00-24.00L174.00-24.00L174.00-36L168.00-36L168.00-42L162.00-42L162.00-36L156.00-36ZM234.00 0L192.00 0L192.00-6.00L198.00-6.00L198.00-48.00L192.00-48.00L192.00-54.00L216.00-54.00L216.00-48.00L210.00-48.00L210.00-6.00L222.00-6.00L222.00-12.00L228.00-12.00L228.00-18L234.00-18L234.00 0ZM246.00-6.00L240.00-6.00L240.00-18L252.00-18L252.00-6.00L270.00-6.00L270.00-18L264.00-18L264.00-24.00L252.00-24.00L252.00-30.00L246.00-30.00L246.00-36L240.00-36L240.00-48.00L246.00-48.00L246.00-54.00L276-54.00L276-48.00L282-48.00L282-36L270.00-36L270.00-48.00L252.00-48.00L252.00-36L258-36L258-30.00L270.00-30.00L270.00-24.00L276-24.00L276-18L282-18L282-6.00L276-6.00L276 0L246.00 0L246.00-6.00ZM294.00-6.00L288.00-6.00L288.00-54.00L300.00-54.00L300.00-6.00L318.00-6.00L318.00-54.00L330.00-54.00L330.00-6.00L324.00-6.00L324.00 0L294.00 0L294.00-6.00ZM354.00-12.00L366.00-12.00L366.00 0L354.00 0L354.00-12.00ZM414.00 0L384.00 0L384.00-6.00L390.00-6.00L390.00-48.00L384.00-48.00L384.00-54.00L414.00-54.00L414.00-48.00L420.00-48.00L420.00-42L426.00-42L426.00-12.00L420.00-12.00L420.00-6.00L414.00-6.00L414.00 0ZM402.00-48.00L402.00-6.00L408.00-6.00L408.00-12.00L414.00-12.00L414.00-42L408.00-42L408.00-48.00L402.00-48.00ZM474.00 0L432.00 0L432.00-6.00L438.00-6.00L438.00-48.00L432.00-48.00L432.00-54.00L474.00-54.00L474.00-36L468.00-36L468.00-42L462.00-42L462.00-48.00L450.00-48.00L450.00-30.00L456.00-30.00L456.00-36L462.00-36L462.00-18L456.00-18L456.00-24.00L450.00-24.00L450.00-6.00L462.00-6.00L462.00-12.00L468.00-12.00L468.00-18L474.00-18L474.00 0ZM486.00-18L480.00-18L480.00-54.00L492.00-54.00L492.00-18L498.00-18L498.00-12.00L504.00-12.00L504.00-18L510.00-18L510.00-54.00L522-54.00L522-18L516-18L516-12.00L510.00-12.00L510.00-6.00L504.00-6.00L504.00 0L498.00 0L498.00-6.00L492.00-6.00L492.00-12.00L486.00-12.00L486.00-18Z" fill="#000000" stroke="#000000" stroke-width="2" />
</svg>